<?xml version="1.0" standalone="no"?>
<!DOCTYPE svg PUBLIC "-//W3C//DTD SVG 1.1//EN" "http://www.w3.org/Graphics/SVG/1.1/DTD/svg11.dtd" >
<!--
2013-9-30: Created.
-->
<svg>
<metadata>
Created by iconfont
</metadata>
<defs>

<font id="iconfont" horiz-adv-x="1024" >
  <font-face
    font-family="iconfont"
    font-weight="500"
    font-stretch="normal"
    units-per-em="1024"
    ascent="896"
    descent="-128"
  />
    <missing-glyph />
    
    <glyph glyph-name="x" unicode="x" horiz-adv-x="1001"
d="M281 543q-27 -1 -53 -1h-83q-18 0 -36.5 -6t-32.5 -18.5t-23 -32t-9 -45.5v-76h912v41q0 16 -0.5 30t-0.5 18q0 13 -5 29t-17 29.5t-31.5 22.5t-49.5 9h-133v-97h-438v97zM955 310v-52q0 -23 0.5 -52t0.5 -58t-10.5 -47.5t-26 -30t-33 -16t-31.5 -4.5q-14 -1 -29.5 -0.5
t-29.5 0.5h-32l-45 128h-439l-44 -128h-29h-34q-20 0 -45 1q-25 0 -41 9.5t-25.5 23t-13.5 29.5t-4 30v167h911zM163 247q-12 0 -21 -8.5t-9 -21.5t9 -21.5t21 -8.5q13 0 22 8.5t9 21.5t-9 21.5t-22 8.5zM316 123q-8 -26 -14 -48q-5 -19 -10.5 -37t-7.5 -25t-3 -15t1 -14.5
t9.5 -10.5t21.5 -4h37h67h81h80h64h36q23 0 34 12t2 38q-5 13 -9.5 30.5t-9.5 34.5q-5 19 -11 39h-368zM336 498v228q0 11 2.5 23t10 21.5t20.5 15.5t34 6h188q31 0 51.5 -14.5t20.5 -52.5v-227h-327z" />
    

    
    <glyph glyph-name="filter" unicode="&#54857;" d="M1014.75 866.639c-10.054 20.11-30.163 30.163-50.275 30.163l-904.947 0c-20.11 0-40.22-10.054-50.275-30.163-10.054-10.054 0-30.163 10.054-50.275l442.419-542.969 0-341.869 100.55-60.331 0 402.198 442.419 542.969c10.054 20.11 20.11 40.22 10.054 50.275zM692.99 585.099l-311.703-80.441-251.374 301.649 754.123 0-191.045-221.209z"  horiz-adv-x="1024" />

    
    <glyph glyph-name="circle" unicode="&#54830;" d="M251.289 384c0-143.986 116.724-260.711 260.711-260.711s260.711 116.724 260.711 260.711c0 143.986-116.724 260.711-260.711 260.711-143.986 0-260.711-116.724-260.711-260.711z"  horiz-adv-x="1024" />

    
    <glyph glyph-name="sort" unicode="&#54862;" d="M12.394 440.56l169.678 0 0-575.021 150.825 0 0 575.021 179.105 0-254.516 461.9zM841.93 327.44l0 575.021-150.825 0 0-575.021-179.105 0 254.516-461.9 245.09 461.9z"  horiz-adv-x="1024" />

    
    <glyph glyph-name="structure" unicode="&#54821;" d="M908.745 894.425l-793.573 0c-62.679 0-113.596-50.916-113.596-113.596l0-793.658c0-62.679 50.916-113.596 113.596-113.596l793.573 0c62.764 0 113.68 50.916 113.68 113.596l0 793.658c0 62.679-50.916 113.596-113.68 113.596l0 0zM115.171 793.684l793.573 0c7.058 0 12.939-5.797 12.939-12.855l0-210.387-819.369 0 0 210.387c0 7.058 5.797 12.855 12.855 12.855l0 0zM102.316-12.829l0 482.53 262.649 0 0-495.385-249.793 0c-7.058 0-12.855 5.797-12.855 12.855l0 0zM908.745-25.684l-443.04 0 0 495.385 455.98 0 0-482.53c0-7.058-5.882-12.855-12.939-12.855l0 0z"  horiz-adv-x="1024" />

    
    <glyph glyph-name="history" unicode="&#54858;" d="M512 896C229.660803 896 0 666.254232 0 383.915035 0 101.660803 229.660803-128 512-128 794.254232-128 1024 101.660803 1024 383.915035 1024 666.254232 794.254232 896 512 896ZM512-66.570196C263.561898-66.570196 61.429804 135.476933 61.429804 383.915035 61.429804 632.438102 263.561898 834.485231 512 834.485231 760.438102 834.485231 962.485231 632.438102 962.485231 383.915035 962.485231 135.476933 760.438102-66.570196 512-66.570196ZM693.145702 125.02622C683.459675 125.02622 673.688682 128.679721 666.296714 136.156654L472.40624 330.047129C465.269167 337.184202 461.275805 346.870229 461.275805 356.896117L461.275805 693.528045C461.275805 714.429472 478.268835 731.507468 499.340192 731.507468 520.326585 731.507468 537.319615 714.429472 537.319615 693.528045L537.319615 372.699635 720.079655 189.939595C734.948556 175.070694 734.948556 151.025556 720.079655 136.156654 712.602722 128.679721 702.916694 125.02622 693.145702 125.02622Z"  horiz-adv-x="1024" />

    
    <glyph glyph-name="location" unicode="&#54800;" d="M512.042667 889.109333C365.525333 889.109333 246.314667 769.984 246.314667 623.552 246.314667 488.042667 348.714667 377.109333 480.042667 361.152L480.042667-35.648 544.042667-35.648 544.042667 361.152C675.285333 377.109333 777.685333 488.042667 777.685333 623.552 777.685333 769.984 658.474667 889.109333 512.042667 889.109333L512.042667 889.109333ZM512.042667 421.909333C400.853333 421.909333 310.314667 512.362667 310.314667 623.552 310.314667 734.656 400.853333 825.109333 512.042667 825.109333 623.146667 825.109333 713.685333 734.656 713.685333 623.552 713.685333 512.362667 623.146667 421.909333 512.042667 421.909333ZM512.042667 787.733333C443.093333 787.733333 380.885333 744.298667 357.333333 679.530667 353.322667 668.522667 359.125333 656.234667 370.133333 652.224 372.522667 651.370667 374.997333 650.944 377.386667 650.944 386.176 650.944 394.368 656.32 397.525333 664.938667 414.933333 712.896 460.928 745.066667 512.042667 745.066667 523.733333 745.066667 533.376 754.624 533.376 766.4 533.376 778.176 523.733333 787.733333 512.042667 787.733333ZM616.234667 49.813333C633.472 36.245333 643.797333 19.264 643.797333 0.746667 643.797333-43.541333 584.832-79.466667 512.042667-79.466667 439.253333-79.466667 380.288-43.541333 380.288 0.746667 380.288 19.264 390.528 36.245333 407.850667 49.813333 373.461333 31.978667 351.701333 5.525333 351.701333-24 351.701333-77.589333 423.466667-121.109333 512.042667-121.109333 600.533333-121.109333 672.298667-77.589333 672.298667-24 672.298667 5.525333 650.538667 31.978667 616.234667 49.813333Z"  horiz-adv-x="1024" />

    
    <glyph glyph-name="help" unicode="&#54785;" d="M512 896C229.248 896 0 666.752 0 384s229.248-512 512-512 512 229.248 512 512S794.752 896 512 896zM552.896 65.216c-13.312-11.84-28.736-17.792-46.272-17.792-18.112 0-33.856 5.888-47.36 17.536-13.504 11.712-20.224 28.096-20.224 49.152 0 18.688 6.528 34.368 19.52 47.104 13.056 12.736 29.056 19.136 48 19.136 18.688 0 34.368-6.4 47.168-19.136 12.736-12.672 19.072-28.416 19.072-47.104C572.928 93.376 566.272 77.12 552.896 65.216zM718.912 476.928c-10.176-18.944-22.336-35.328-36.416-49.152-14.08-13.76-39.36-36.992-75.776-69.568-10.112-9.216-18.112-17.28-24.192-24.256C576.384 327.04 571.904 320.64 568.896 314.88 565.952 309.12 563.648 303.296 561.984 297.536 560.384 291.712 557.888 281.6 554.688 267.072 549.056 236.224 531.392 220.8 501.76 220.8c-15.424 0-28.416 5.056-38.912 15.168-10.496 10.048-15.808 25.024-15.808 44.864 0 24.896 3.84 46.464 11.52 64.704 7.744 18.24 17.92 34.24 30.656 48C502.08 407.296 519.296 423.68 540.928 442.688c18.944 16.576 32.64 29.12 41.088 37.568 8.448 8.448 15.552 17.856 21.376 28.224 5.76 10.368 8.64 21.632 8.64 33.792 0 23.68-8.832 43.712-26.432 60.032C567.936 618.624 545.216 626.752 517.376 626.752c-32.64 0-56.64-8.256-72.064-24.704C429.888 585.6 416.896 561.408 406.208 529.344 396.096 495.872 377.024 479.104 348.864 479.104c-16.576 0-30.656 5.888-42.048 17.6C295.424 508.416 289.728 521.088 289.728 534.72c0 28.16 9.024 56.704 27.136 85.568 18.048 28.928 44.48 52.8 79.168 71.808C430.656 711.04 471.104 720.576 517.376 720.576c43.008 0 80.896-7.936 113.792-23.808 32.896-15.872 58.304-37.44 76.224-64.704 17.984-27.264 26.88-56.896 26.88-88.896C734.272 517.952 729.216 495.872 718.912 476.928z"  horiz-adv-x="1024" />

    
    <glyph glyph-name="area" unicode="&#54789;" d="M760.551 624.784c0 147.578-108.741 264.086-248.551 264.086s-248.551-116.509-248.551-264.086c0-147.578 248.551-458.267 248.551-458.267s248.551 310.689 248.551 458.267zM387.724 663.62c0 69.905 54.371 124.276 124.276 124.276s124.276-54.371 124.276-124.276-54.371-124.276-124.276-124.276-124.276 54.371-124.276 124.276zM962.499 469.439l-124.276 0c-23.301 0-38.836-15.534-38.836-38.836s15.534-38.836 38.836-38.836l85.439 0 0-419.43-815.559 0 0 411.663 85.439 0c23.301 0 38.836 15.534 38.836 38.836s-15.534 38.836-38.836 38.836l-132.043 0c-23.301 0-38.836-15.534-38.836-38.836l0-504.869c0-23.301 15.534-38.836 38.836-38.836l900.998 0c23.301 0 38.836 15.534 38.836 38.836l0 512.637c0 23.301-15.534 38.836-38.836 38.836z"  horiz-adv-x="1024" />

    
    <glyph glyph-name="star" unicode="&#54806;" d="M1017.6 505.6c-6.4 19.2-19.2 32-38.4 32l-300.8 32L556.8 844.8c-12.8 32-70.4 32-89.6 0L345.6 569.6 44.8 537.6c-19.2 0-32-12.8-38.4-32C0 486.4 6.4 467.2 19.2 454.4l224-204.8-64-294.4c-6.4-19.2 6.4-38.4 19.2-51.2 12.8-12.8 38.4-12.8 51.2 0L512 51.2l262.4-153.6c6.4-6.4 12.8-6.4 25.6-6.4 12.8 0 19.2 0 25.6 6.4 12.8 12.8 25.6 32 19.2 51.2l-64 294.4 224 204.8C1017.6 467.2 1024 486.4 1017.6 505.6z"  horiz-adv-x="1024" />

    
    <glyph glyph-name="weibo" unicode="&#54841;" d="M839.032099 460.8c12.8 0 25.6 6.4 25.6 19.2 0 0 0 0 0 0 19.2 172.8-153.6 147.2-153.6 147.2-12.8 0-25.6-12.8-25.6-25.6 0-12.8 12.8-25.6 25.6-25.6 121.6 25.6 96-89.6 96-89.6C813.432099 473.6 819.832099 460.8 839.032099 460.8zM819.832099 761.6c-57.6 12.8-121.6 0-140.8 0 0 0 0 0-6.4 0 0 0 0 0 0 0-19.2-6.4-32-19.2-32-38.4 0-19.2 19.2-38.4 38.4-38.4 0 0 19.2 0 38.4 6.4 12.8 6.4 140.8 6.4 198.4-96 32-76.8 12.8-128 12.8-134.4 0 0-6.4-19.2-6.4-38.4 0-19.2 19.2-38.4 38.4-38.4 19.2 0 32 0 38.4 32l0 0C1075.832099 640 922.232099 742.4 819.832099 761.6zM365.432099 345.6c-166.4-19.2-147.2-166.4-147.2-166.4s0-44.8 44.8-70.4C359.032099 64 461.432099 96 512.632099 153.6 563.832099 217.6 538.232099 364.8 365.432099 345.6zM327.032099 140.8c-32-6.4-57.6 12.8-57.6 38.4 0 25.6 25.6 51.2 51.2 51.2C359.032099 236.8 384.632099 217.6 384.632099 192 384.632099 166.4 359.032099 147.2 327.032099 140.8zM423.032099 224c-12.8-6.4-25.6-6.4-32 0-6.4 6.4-6.4 25.6 6.4 32 12.8 6.4 25.6 6.4 32 0C435.832099 243.2 435.832099 230.4 423.032099 224zM755.832099 384c-38.4 6.4-19.2 25.6-19.2 25.6s38.4 57.6-6.4 102.4c-57.6 51.2-198.4-6.4-198.4-6.4C474.232099 492.8 493.432099 512 499.832099 550.4c0 44.8-19.2 121.6-160 76.8C199.032099 582.4 77.432099 428.8 77.432099 428.8-12.167901 320 0.632099 236.8 0.632099 236.8c19.2-179.2 224-230.4 384-243.2 166.4-12.8 396.8 51.2 467.2 192C922.232099 326.4 794.232099 377.6 755.832099 384zM403.832099 51.2c-166.4-6.4-300.8 70.4-300.8 172.8 0 102.4 134.4 185.6 300.8 192C570.232099 422.4 704.632099 358.4 704.632099 256 704.632099 153.6 570.232099 57.6 403.832099 51.2z"  horiz-adv-x="1025" />

    
    <glyph glyph-name="weixin" unicode="&#54842;" d="M1024 268.8c0 140.8-147.2 256-307.2 256-172.8 0-307.2-115.2-307.2-256 0-140.8 134.4-256 307.2-256 38.4 0 70.4 6.4 108.8 19.2l102.4-51.2L896 64C966.4 121.6 1024 192 1024 268.8zM614.4 313.6c-19.2 0-38.4 19.2-38.4 38.4C582.4 364.8 595.2 384 614.4 384c25.6 0 44.8-19.2 44.8-38.4C659.2 332.8 640 313.6 614.4 313.6zM812.8 313.6c-19.2 0-38.4 19.2-38.4 38.4 0 19.2 19.2 38.4 38.4 38.4 25.6 0 44.8-19.2 44.8-38.4C857.6 332.8 844.8 313.6 812.8 313.6zM691.2 544c12.8 0 25.6 0 32 0-32 140.8-185.6 249.6-364.8 249.6C160 787.2 0 659.2 0 492.8c0-96 51.2-179.2 147.2-236.8l-38.4-108.8 128 64C281.6 198.4 320 192 364.8 192c12.8 0 25.6 0 32 0C390.4 217.6 384 236.8 384 262.4 384 422.4 518.4 544 691.2 544zM499.2 640c25.6 0 44.8-19.2 44.8-44.8 0-25.6-19.2-44.8-44.8-44.8-25.6 0-51.2 19.2-51.2 44.8C441.6 620.8 473.6 640 499.2 640zM243.2 550.4C217.6 550.4 192 569.6 192 595.2 192 620.8 217.6 640 243.2 640c25.6 0 44.8-19.2 44.8-44.8C288 569.6 268.8 550.4 243.2 550.4z"  horiz-adv-x="1024" />

    
    <glyph glyph-name="qq" unicode="&#54840;" d="M57.6 307.2c-38.4-89.6-44.8-179.2-12.8-192 19.2-12.8 57.6 12.8 83.2 57.6 12.8-51.2 44.8-96 83.2-134.4-44.8-19.2-76.8-44.8-76.8-76.8 0-51.2 83.2-89.6 179.2-89.6 89.6 0 166.4 32 179.2 76.8 6.4 0 19.2 0 19.2 0 12.8-44.8 89.6-76.8 179.2-76.8 102.4 0 179.2 38.4 179.2 89.6 0 32-32 57.6-76.8 76.8 44.8 38.4 76.8 83.2 83.2 134.4 32-44.8 64-70.4 83.2-57.6 32 19.2 25.6 102.4-12.8 192-32 70.4-70.4 121.6-102.4 134.4 0 6.4 0 6.4 0 12.8 0 25.6-6.4 51.2-19.2 70.4 0 0 0 6.4 0 6.4 0 12.8 0 25.6-6.4 32C825.6 748.8 704 896 512 896 320 896 198.4 748.8 192 563.2 185.6 556.8 179.2 544 179.2 531.2c0 0 0-6.4 0-6.4C166.4 505.6 160 480 160 454.4c0-6.4 0-6.4 0-12.8C134.4 428.8 89.6 377.6 57.6 307.2L57.6 307.2zM57.6 307.2"  horiz-adv-x="1024" />

    
    <glyph glyph-name="triangle-right" unicode="&#54845;" d="M774.024 413.663l-484.497 355.958c-9.888 9.888-24.719 9.888-34.607 4.943-14.831-4.943-19.776-19.776-19.776-29.663l0-716.858c0-14.831 4.943-24.719 19.776-29.663 4.943-4.943 9.888-9.888 14.831-9.888 4.943 0 14.831 0 19.776 4.943l489.441 360.901c9.888 4.943 14.831 14.831 14.831 29.663-4.943 9.888-9.888 19.776-19.776 29.663z"  horiz-adv-x="1024" />

    
    <glyph glyph-name="triangle-left" unicode="&#54846;" d="M246.124 356.075l487.441-359.425c9.847-9.848 24.618-9.848 34.465-4.925 9.848 4.925 19.695 19.694 19.695 29.542l0 723.774c0 14.771-4.924 24.618-19.695 29.542 0 4.925-4.924 4.925-14.771 4.925-4.925 0-14.771 0-19.695-4.925l-487.441-359.425c-4.925-9.847-9.848-19.694-9.848-29.542s4.924-19.695 9.848-29.542z"  horiz-adv-x="1024" />

    
    <glyph glyph-name="alert" unicode="&#54813;" d="M511.808 896C229.12 896 0 666.88 0 384.064c0-282.688 229.12-511.936 511.808-511.936 282.752 0 511.936 229.248 511.936 511.936C1023.744 666.88 794.624 896 511.808 896L511.808 896 511.808 896zM598.016 725.504l-24.704-483.584L449.984 241.92 425.28 725.504 598.016 725.504 598.016 725.504zM508.672 12.096c-54.08 0-85.824 39.04-85.824 85.824 0 50.112 36.416 86.912 86.912 86.912 51.776 0 85.824-36.8 85.824-86.912C595.584 48.896 561.6 12.096 508.672 12.096L508.672 12.096 508.672 12.096zM508.672 12.096"  horiz-adv-x="1024" />

    
    <glyph glyph-name="android" unicode="&#54801;" d="M969.531968 658.36107M250.370306 621.561394l523.259389 0c0 59.00748-40.959639 126.590884-103.359089 172.926476l49.087567 61.375459c9.08792 9.279918 8.959921 24.319786-0.319997 33.407706-9.279918 9.08792-24.319786 8.959921-33.407706-0.319997L628.990969 819.895646C593.66328 837.879488 554.303627 849.591385 512 849.591385c-40.83164 0-78.911305-11.007903-113.343001-27.967754L332.67358 888.951038C323.58566 898.230956 308.545793 898.358955 299.265875 889.271035 289.985957 880.183115 289.857958 865.143248 298.945878 855.863329l58.047488-59.263478C292.609933 750.008262 250.370306 680.760872 250.370306 621.561394zM629.182967 753.336233c16.575854 0 29.951736-13.439882 29.951736-29.951736 0-16.575854-13.439882-29.951736-29.951736-29.951736s-29.951736 13.439882-29.951736 29.951736C599.231231 739.896351 612.607113 753.336233 629.182967 753.336233zM428.864733 723.320497c0-16.575854-13.439882-29.951736-29.951736-29.951736-16.575854 0-29.951736 13.439882-29.951736 29.951736 0 16.575854 13.439882 29.951736 29.951736 29.951736C415.424851 753.336233 428.864733 739.896351 428.864733 723.320497zM172.290994 221.372921 153.987155 221.372921c-18.943833 0-34.495696 15.487864-34.495696 34.495696L119.491459 536.762142c0 18.943833 15.487864 34.495696 34.495696 34.495696l18.239839 0c18.943833 0 34.495696-15.487864 34.495696-34.495696l0-280.893525C206.78669 236.860785 191.234827 221.372921 172.290994 221.372921zM870.012845 221.372921l-18.239839 0c-18.943833 0-34.495696 15.487864-34.495696 34.495696L817.27731 536.762142c0 18.943833 15.487864 34.495696 34.495696 34.495696l18.239839 0c18.943833 0 34.495696-15.487864 34.495696-34.495696l0-280.893525C904.444541 236.860785 888.956678 221.372921 870.012845 221.372921zM773.629694 571.193838 250.370306 571.193838l0-520.571412 91.327195 0 0-140.478762c0-19.199831 15.679862-34.879693 34.879693-34.879693l17.407847 0c19.199831 0 34.879693 15.679862 34.879693 34.879693l0 140.478762 170.366499 0 0-140.478762c0-19.199831 15.679862-34.879693 34.879693-34.879693l17.407847 0c19.199831 0 34.879693 15.679862 34.879693 34.879693l0 140.478762 87.231231 0L773.629694 571.193838z"  horiz-adv-x="1024" />

    
    <glyph glyph-name="apartment" unicode="&#54803;" d="M512 658.54609M307.225581 34.182363l119.462403 0c8.505621 0 17.075194 8.505621 17.075194 17.075194l0 145.043218c0 8.505621 0 17.075194-17.075194 17.075194L307.225581 213.375968c-8.505621 0-17.075194-8.569573-17.075194-17.075194l0-145.043218C290.150387 42.751936 298.656008 34.182363 307.225581 34.182363L307.225581 34.182363zM597.312016 896 136.537597 896c-25.580814 0-51.225581-25.580814-51.225581-51.225581l0-921.548838c0-25.580814 25.580814-51.225581 51.225581-51.225581l460.774419 0c25.580814 0 51.225581 25.580814 51.225581 51.225581L648.537597 844.774419C648.537597 870.419186 622.956782 896 597.312016 896L597.312016 896zM563.225581-42.624032 170.687984-42.624032 170.687984 810.687984l392.537597 0L563.225581-42.624032 563.225581-42.624032zM887.462403 674.150387l-145.043218 0c-25.580814 0-51.225581-25.580814-51.225581-51.225581L691.193605-76.710467c0-25.580814 25.580814-51.225581 51.225581-51.225581l145.043218 0c25.580814 0 51.225581 25.580814 51.225581 51.225581L938.687984 622.924806C938.624032 648.569573 913.043218 674.150387 887.462403 674.150387L887.462403 674.150387zM853.312016-42.624032l-76.806395 0L776.505621 588.838371l76.806395 0L853.312016-42.624032 853.312016-42.624032zM853.312016-42.624032"  horiz-adv-x="1024" />

    
    <glyph glyph-name="apple" unicode="&#54817;" d="M791.254093 352.462137c-1.407466 129.614844 105.559966 191.991187 110.358147 194.998047-60.32912 87.966639-153.989599 99.930102-187.384934 101.337568C634.513537 656.730743 558.702288 601.583657 518.269622 601.583657 477.900932 601.519682 415.460613 647.134382 349.3097 645.790892c-86.943027-1.34349-166.912698-50.73276-211.695714-128.591232-90.013862-156.804532-22.519459-388.844531 65.639106-515.772393 43.055671-62.120441 94.364212-131.91797 161.794639-129.358941 64.871398 2.623005 89.310129 42.032059 167.616431 42.160011 78.370278 0.127951 100.505883-41.776156 169.023898-40.36869 69.797529 1.34349 113.940788 63.527907 156.548629 125.904251 49.325293 72.228607 69.477651 142.154088 70.69319 145.736729C927.458437 146.20436 792.853486 197.576877 791.254093 352.462137zM715.826699 896c-51.500468-2.111199-113.812836-34.290995-150.854788-77.538593-33.139432-38.385442-62.120441-99.610223-54.315401-158.33995 57.450212-4.478302 116.115963 29.172936 151.8784 72.420535C698.297347 775.853566 722.352224 836.054734 715.826699 896z"  horiz-adv-x="1024" />

    
    <glyph glyph-name="up" unicode="&#54847;" d="M409.6 569.6 409.6-128 614.4-128 614.4 569.6 819.2 569.6 512 896 204.8 569.6Z"  horiz-adv-x="1024" />

    
    <glyph glyph-name="down" unicode="&#54790;" d="M634.944 196.288 634.944 896l-204.8 0 0-699.712-204.8 0L532.48-128l307.2 324.288L634.944 196.288zM634.944 196.288"  horiz-adv-x="1024" />

    
    <glyph glyph-name="back" unicode="&#54851;" d="M979.2 428.8 160 428.8l371.2 371.2c19.2 19.2 19.2 44.8 0 64-19.2 19.2-44.8 19.2-64 0l-448-448c-19.2-19.2-19.2-44.8 0-64l448-448c6.4-6.4 19.2-12.8 32-12.8s25.6 6.4 32 12.8c19.2 19.2 19.2 44.8 0 64L160 339.2l819.2 0C1004.8 339.2 1024 358.4 1024 384 1024 409.6 1004.8 428.8 979.2 428.8z"  horiz-adv-x="1024" />

    
    <glyph glyph-name="box" unicode="&#54865;" d="M953.6 896 70.4 896C32 896 0 864 0 825.6l0-889.6C0-96 32-128 70.4-128l889.6 0c38.4 0 70.4 32 70.4 70.4L1030.4 825.6C1024 864 992 896 953.6 896zM960-57.6C960-64 960-64 960-57.6L70.4-64C64-64 64-64 64-57.6L64 825.6C64 832 64 832 70.4 832l889.6 0C960 832 960 832 960 825.6L960-57.6z"  horiz-adv-x="1031" />

    
    <glyph glyph-name="call" unicode="&#54853;" d="M135.323575-6.697422c82.9965-76.612154 172.377347-140.455616 255.373848-108.533885 82.9965 31.921731 255.373848 185.146039 357.523387 357.523387 102.149539 172.377347 159.608655 389.445117 153.224309 478.825964-6.384346 82.9965-108.533885 134.07127-217.06777 172.377347-12.768692 6.384346-31.921731 0-44.690423-12.768692 0 0 0-6.384346 0-6.384346l0 0L550.306077 644.505889l0 0c-6.384346-12.768692 0-31.921731 12.768692-38.306077 0 0 0 0 6.384346 0 0 0 0 0 0 0 0 0 0 0 0 0 19.153039-6.384346 25.537385-6.384346 44.690423-12.768692 25.537385-6.384346 63.843462-19.153039 114.918231-25.537385 6.384346-57.459116-19.153039-146.839962-89.380847-255.373848-63.843462-108.533885-134.07127-172.377347-185.146039-197.914732-25.537385 38.306077-51.07477 70.227808-70.227808 89.380847-12.768692 12.768692-12.768692 12.768692-31.921731 31.921731 0 0 0 0 0 0l0 0c0 0 0 0-6.384346 0-12.768692 6.384346-31.921731 6.384346-44.690423-6.384346l0 0-159.608655-185.146039 0 0c0 0 0 0-6.384346-6.384346C122.554883 25.224309 122.554883 6.07127 135.323575-6.697422"  horiz-adv-x="1024" />

    
    <glyph glyph-name="check" unicode="&#54804;" d="M360.448 22.272 360.448 22.272c-14.336 0-28.096 5.76-38.144 16L17.28 347.84c-20.672 21.056-20.48 54.976 0.64 75.648 20.8 20.8 54.848 20.544 75.648-0.512l266.88-270.976 570.112 577.856c20.8 21.056 54.656 21.248 75.648 0.512 20.992-20.736 21.184-54.656 0.448-75.648l-608.128-616.512C388.416 28.032 374.72 22.272 360.448 22.272z"  horiz-adv-x="1024" />

    
    <glyph glyph-name="checkbox" unicode="&#54805;" d="M762.752 587.776 418.56 240.448 261.888 407.808C249.792 420.608 229.568 421.312 216.64 409.28 203.776 397.184 203.072 376.96 215.168 364.032l179.328-191.552c5.952-6.4 14.208-9.984 22.912-10.176 0.192 0 0.32 0 0.448 0 8.512 0 16.704 3.392 22.72 9.472l367.68 370.88c12.416 12.608 12.352 32.832-0.256 45.248C795.392 600.448 775.168 600.32 762.752 587.776zM955.712 896 68.288 896C30.72 896 0 865.28 0 827.712l0-887.488C0-97.28 30.72-128 68.288-128l887.488 0C993.28-128 1024-97.28 1024-59.712L1024 827.712C1024 865.28 993.28 896 955.712 896zM960-59.712C960-61.952 957.952-64 955.712-64L68.288-64C66.048-64 64-61.952 64-59.712L64 827.712C64 829.952 66.048 832 68.288 832l887.488 0C957.952 832 960 829.952 960 827.712L960-59.712z"  horiz-adv-x="1024" />

    
    <glyph glyph-name="checked" unicode="&#54854;" d="M512 896C230.4 896 0 665.6 0 384s230.4-512 512-512 512 230.4 512 512S793.6 896 512 896zM819.2 512l-358.4-358.4c-6.4-6.4-19.2-12.8-32-12.8-12.8-6.4-25.6 6.4-32 12.8L211.2 339.2C192 358.4 198.4 384 211.2 403.2c19.2 19.2 44.8 19.2 64 0l153.6-153.6L755.2 576c19.2 19.2 44.8 19.2 64 0S838.4 531.2 819.2 512z"  horiz-adv-x="1024" />

    
    <glyph glyph-name="info" unicode="&#54787;" d="M512 896C230.4 896 0 665.6 0 384s230.4-512 512-512 512 230.4 512 512S793.6 896 512 896zM531.2 697.6c12.8 19.2 38.4 25.6 64 25.6 19.2 0 38.4-6.4 51.2-19.2 12.8-12.8 19.2-25.6 19.2-44.8 0-25.6-6.4-44.8-25.6-57.6C620.8 582.4 595.2 576 569.6 576 550.4 576 531.2 582.4 518.4 588.8 512 601.6 505.6 620.8 505.6 640 505.6 659.2 512 678.4 531.2 697.6zM550.4 76.8c-38.4-19.2-70.4-32-96-32-44.8 0-57.6 38.4-38.4 121.6l38.4 172.8c6.4 25.6 6.4 38.4 0 38.4-6.4 0-19.2-6.4-38.4-12.8C403.2 358.4 384 345.6 371.2 339.2L352 364.8c38.4 38.4 83.2 64 128 83.2 44.8 19.2 76.8 32 102.4 32 38.4 0 44.8-38.4 25.6-108.8L563.2 192c-6.4-32-6.4-44.8 6.4-44.8 19.2 0 44.8 12.8 83.2 38.4l19.2-25.6C633.6 128 588.8 96 550.4 76.8z"  horiz-adv-x="1024" />

    
    <glyph glyph-name="cancel" unicode="&#54794;" d="M723.2 595.2c-16.64 16.64-44.224 16.128-60.608-0.256L512 444.352 361.408 594.944C345.024 611.328 317.44 611.84 300.8 595.2 284.608 579.008 284.224 551.424 300.992 534.592L451.648 384l-150.592-150.592c-16.832-16.832-16.384-44.352-0.192-60.608 16.576-16.64 44.096-16.128 60.48 0.256L512 323.648l150.592-150.592c16.384-16.384 43.968-16.896 60.608-0.256 16.192 16.192 16.576 43.776-0.192 60.608L572.352 384l150.592 150.592C739.776 551.424 739.328 579.008 723.2 595.2zM512 896C229.184 896 0 666.816 0 384s229.184-512 512-512 512 229.184 512 512S794.816 896 512 896zM512-76.8c-254.464 0-460.8 206.336-460.8 460.8S257.536 844.8 512 844.8s460.8-206.336 460.8-460.8S766.464-76.8 512-76.8z"  horiz-adv-x="1024" />

    
    <glyph glyph-name="success" unicode="&#54798;" d="M703.232 584.32l-235.328-336.064L345.28 370.88c-17.216 17.216-43.584 16.704-60.288 0-16.192-16.192-16.576-43.584 0-60.288l156.544-156.544C448 147.584 455.616 143.616 463.616 142.08c16.512-4.096 35.2 1.856 45.632 16.832l263.616 376.448c13.376 19.136 8.96 46.016-10.368 59.456C743.936 607.936 716.736 603.648 703.232 584.32zM510.976 896C228.736 896 0 667.264 0 385.024s228.736-510.976 510.976-510.976 510.976 228.736 510.976 510.976S793.216 896 510.976 896zM510.976-74.88c-253.952 0-459.904 205.952-459.904 459.904s205.952 459.904 459.904 459.904 459.904-205.952 459.904-459.904S764.992-74.88 510.976-74.88z"  horiz-adv-x="1024" />

    
    <glyph glyph-name="delete" unicode="&#54807;" d="M574.391 384.049l320.064 320.065c17.254 17.254 17.254 45.188 0 62.441s-45.188 17.254-62.441 0l-320.064-320.065-320.065 320.065c-17.254 17.254-45.188 17.254-62.441 0s-17.254-45.188 0-62.441l320.065-320.065-320.065-320.064c-17.254-17.254-17.254-45.188 0-62.441 8.603-8.602 19.924-12.953 31.245-12.953s22.593 4.301 31.245 12.953l320.065 320.065 320.064-320.065c8.602-8.602 19.924-12.953 31.245-12.953s22.593 4.301 31.245 12.953c17.254 17.254 17.254 45.188 0 62.441l-320.164 320.064z"  horiz-adv-x="1024" />

    
    <glyph glyph-name="share" unicode="&#54810;" d="M718.784 133.696l-364.928 212.416c2.56 11.776 4.608 23.552 4.608 35.84 0 12.288-2.048 24.064-4.608 35.84l360.832 210.368c27.648-25.6 64-41.472 104.448-41.472 84.992 0 153.536 68.608 153.536 153.536s-68.608 153.536-153.536 153.536c-84.992 0-153.536-68.608-153.536-153.536 0-12.288 2.048-24.064 4.608-35.84L309.312 494.08c-27.648 25.6-64 41.472-104.448 41.472-84.992 0-153.536-68.608-153.536-153.536s68.608-153.536 153.536-153.536c40.448 0 76.8 15.872 104.448 41.472l364.416-212.928c-2.56-10.752-4.096-22.016-4.096-33.28 0-82.432 67.072-149.44 149.44-149.44 82.432 0 149.44 67.072 149.44 149.44s-67.072 149.44-149.44 149.44C780.224 173.12 745.408 157.76 718.784 133.696z"  horiz-adv-x="1024" />

    
    <glyph glyph-name="right" unicode="&#54811;" d="M283.52 481.856 211.328 409.408l259.2-258.56 547.52 522.048-70.656 74.112-475.264-453.184L283.52 481.856zM917.632 333.184c-25.344-201.728-197.504-358.272-405.888-358.272-225.664 0-409.344 183.68-409.344 409.344 0 225.792 183.68 409.472 409.344 409.472 72.512 0 140.544-19.2 199.68-52.352l74.56 74.432C706.56 866.432 612.736 896 511.744 896 229.184 896 0 666.944 0 384.256c0-282.56 229.184-511.744 511.744-511.744 265.344 0 483.456 201.984 509.12 460.608L917.632 333.12z"  horiz-adv-x="1024" />

    
    <glyph glyph-name="download" unicode="&#54818;" d="M1023.872 250.496l-133.504 0 0-222.656L133.504 27.84l0 222.656L0 250.496l0-356.032 118.592 0 0-0.192L1024-105.536l0 356.032L1023.872 250.496zM845.504 562.048 578.688 562.048 578.688 873.728 445.12 873.728l0-311.744L179.008 561.984l333.312-400.256L845.504 562.048 845.504 562.048zM845.504 562.048"  horiz-adv-x="1024" />

    
    <glyph glyph-name="triangle-down" unicode="&#54809;" d="M512 136.807l395.508 494.385-791.016 0 197.754-247.193z"  horiz-adv-x="1024" />

    
    <glyph glyph-name="close" unicode="&#54856;" d="M512 896C230.4 896 0 665.6 0 384c0-281.6 230.4-512 512-512s512 230.4 512 512C1024 665.6 793.6 896 512 896zM755.2 204.8c19.2-19.2 19.2-44.8 0-64-6.4-6.4-19.2-12.8-32-12.8s-19.2 6.4-32 12.8L512 320l-179.2-179.2C320 134.4 313.6 128 300.8 128s-19.2 6.4-32 12.8c-19.2 19.2-19.2 44.8 0 64L448 384 268.8 563.2c-19.2 19.2-19.2 44.8 0 64s44.8 19.2 64 0L512 448l179.2 179.2c19.2 19.2 44.8 19.2 64 0s19.2-44.8 0-64L576 384 755.2 204.8z"  horiz-adv-x="1024" />

    
    <glyph glyph-name="arrow-down" unicode="&#54815;" d="M96.589 557.118c0 8.341 2.972 16.681 9.017 23.302 12.824 14.074 34.718 15.17 48.896 2.293l357.496-325.021 357.496 325.021c14.179 12.824 36.02 11.781 48.896-2.346 12.719-14.179 11.781-36.072-2.346-48.896l-380.798-346.185c-13.24-11.99-33.362-11.99-46.602 0l-380.693 346.185c-7.558 6.83-11.363 16.213-11.363 25.647z"  horiz-adv-x="1024" />

    
    <glyph glyph-name="arrow-left" unicode="&#54816;" d="M680.541 788.5c8.123 0 16.245-2.894 22.693-8.782 13.758-12.488 14.773-33.861 2.284-47.619l-316.574-348.15 316.524-348.151c12.488-13.808 11.473-35.08-2.284-47.618-13.808-12.387-35.13-11.472-47.618 2.284l-337.134 370.843c-11.676 12.894-11.676 32.49 0 45.385l337.134 370.793c6.701 7.361 15.839 11.016 24.976 11.016z"  horiz-adv-x="1024" />

    
    <glyph glyph-name="arrow-right" unicode="&#54824;" d="M343.692-19.869c-8.109 0-16.217 2.888-22.655 8.767-13.735 12.466-14.749 33.804-2.281 47.538l316.041 347.564-315.991 347.564c-12.519 13.785-11.454 35.02 2.281 47.588 13.785 12.365 35.071 11.454 47.538-2.281l336.566-370.217c11.657-12.872 11.657-32.436 0-45.308l-336.566-370.167c-6.639-7.348-15.762-11.049-24.934-11.049z"  horiz-adv-x="1024" />

    
    <glyph glyph-name="arrow-top" unicode="&#54825;" d="M927.358 210.882c0-8.341-2.972-16.681-9.017-23.302-12.824-14.127-34.77-15.17-48.896-2.346l-357.496 325.073-357.496-325.021c-14.179-12.824-36.02-11.781-48.896 2.346-12.719 14.179-11.781 36.072 2.346 48.896l380.798 346.185c13.24 11.99 33.362 11.99 46.602 0l380.746-346.185c7.506-6.83 11.312-16.213 11.312-25.647z"  horiz-adv-x="1024" />

    
    <glyph glyph-name="nav" unicode="&#54819;" d="M0 803.264l1024 0 0-119.232L0 684.032 0 803.264 0 803.264zM0 443.648l1024 0 0-119.232L0 324.416 0 443.648 0 443.648zM0 83.968l1024 0 0-119.232L0-35.264 0 83.968 0 83.968zM0 83.968"  horiz-adv-x="1024" />

    
    <glyph glyph-name="list" unicode="&#54826;" d="M332.8 294.4 70.4 294.4C32 294.4 0 262.4 0 224l0-262.4c0-38.4 32-70.4 70.4-70.4l262.4 0c38.4 0 70.4 32 70.4 70.4l0 262.4C396.8 262.4 371.2 294.4 332.8 294.4zM339.2-38.4c0-6.4-6.4-12.8-12.8-12.8L70.4-51.2c-6.4 0-12.8 6.4-12.8 12.8l0 262.4c0 6.4 6.4 12.8 12.8 12.8l262.4 0c6.4 0 12.8-6.4 12.8-12.8L345.6-38.4zM332.8 876.8 70.4 876.8C32 876.8 0 844.8 0 806.4l0-262.4c0-38.4 32-70.4 70.4-70.4l262.4 0c38.4 0 70.4 32 70.4 70.4L403.2 806.4C396.8 844.8 371.2 876.8 332.8 876.8zM339.2 544c0-6.4-6.4-12.8-12.8-12.8L70.4 531.2C64 537.6 57.6 537.6 57.6 544L57.6 806.4c0 6.4 6.4 12.8 12.8 12.8l262.4 0c6.4 0 12.8-6.4 12.8-12.8L345.6 544zM531.2 742.4l454.4 0c19.2 0 32 12.8 32 32s-12.8 32-32 32L531.2 806.4c-19.2 0-32-12.8-32-32S518.4 742.4 531.2 742.4zM992 614.4 531.2 614.4c-19.2 0-32-12.8-32-32s12.8-32 32-32l454.4 0c19.2 0 32 12.8 32 32S1011.2 614.4 992 614.4zM992 217.6 531.2 217.6c-19.2 0-32-12.8-32-32 0-19.2 12.8-32 32-32l454.4 0c19.2 0 32 12.8 32 32C1024 204.8 1011.2 217.6 992 217.6zM992 25.6 531.2 25.6c-19.2 0-32-12.8-32-32s12.8-32 32-32l454.4 0c19.2 0 32 12.8 32 32S1011.2 25.6 992 25.6z"  horiz-adv-x="1024" />

    
    <glyph glyph-name="email" unicode="&#54799;" d="M919.808 802.112 102.208 802.112c-56.192 0-101.696-47.04-101.696-104.512L0 70.4c0-57.472 46.016-104.512 102.208-104.512l817.6 0c56.192 0 102.208 47.04 102.208 104.512L1022.016 697.6C1022.016 755.072 976 802.112 919.808 802.112L919.808 802.112zM919.808 593.024l-408.768-261.312L102.208 593.024 102.208 697.6l408.768-261.312L919.808 697.6 919.808 593.024 919.808 593.024z"  horiz-adv-x="1024" />

    
    <glyph glyph-name="mobile" unicode="&#54832;" d="M712.256 895.36 311.744 895.36c-69.056 0-125.12-52.032-125.12-116.224l0-790.272c0-64.128 56.064-116.224 125.12-116.224l400.512 0c69.056 0 125.12 52.032 125.12 116.224L837.376 779.136C837.376 843.264 781.312 895.36 712.256 895.36L712.256 895.36zM512-80.832c-41.536 0-75.072 31.168-75.072 69.696s33.536 69.696 75.072 69.696 75.072-31.168 75.072-69.696S553.536-80.832 512-80.832L512-80.832zM737.28 105.088 286.72 105.088 286.72 755.904l450.56 0L737.28 105.088 737.28 105.088z"  horiz-adv-x="1024" />

    
    <glyph glyph-name="map" unicode="&#54795;" d="M512 896C307.2 896 145.088 725.312 145.088 512S512-128 512-128s366.912 426.688 366.912 640S716.8 896 512 896L512 896zM512 443.712c-85.312 0-162.112 76.8-162.112 153.6 0 76.8 68.288 153.6 162.112 153.6s162.112-76.8 162.112-153.6C674.112 520.512 597.312 443.712 512 443.712L512 443.712zM512 443.712"  horiz-adv-x="1024" />

    
    <glyph glyph-name="pen" unicode="&#54797;" d="M969.536 658.368M366.855206-5.657651l-244.600032 244.600032 538.074816 538.074816 244.600032-244.600032-538.074816-538.074816ZM0-128 342.4-30.144 97.856 214.464ZM1005.888 724.992l-152.896 152.896c-25.344 25.28-67.776 23.936-94.784-3.072L684.8 801.472l244.608-244.608 73.088 73.024c0.128 0.128 0.192 0.192 0.32 0.32C1029.824 657.216 1031.168 699.712 1005.888 724.992z"  horiz-adv-x="1024" />

    
    <glyph glyph-name="play" unicode="&#54843;" d="M512 896C230.4 896 0 665.6 0 384s230.4-512 512-512 512 230.4 512 512S793.6 896 512 896zM512-44.8c-236.8 0-435.2 192-435.2 435.2 0 236.8 192 435.2 435.2 435.2 236.8 0 435.2-192 435.2-435.2C940.8 147.2 748.8-44.8 512-44.8zM665.6 422.4 403.2 569.6c-12.8 6.4-32 6.4-44.8 0C345.6 563.2 339.2 550.4 339.2 537.6l0-300.8c0-12.8 6.4-32 19.2-38.4 12.8-6.4 32-6.4 44.8 0l262.4 153.6c12.8 6.4 19.2 19.2 19.2 38.4C684.8 403.2 678.4 416 665.6 422.4z"  horiz-adv-x="1024" />

    
    <glyph glyph-name="schedule" unicode="&#54820;" d="M172.8 460.8l153.6 0 0-153.6L172.8 307.2 172.8 460.8zM435.2 460.8l153.6 0 0-153.6L435.2 307.2 435.2 460.8zM691.2 460.8l153.6 0 0-153.6-153.6 0L691.2 460.8zM179.2 217.6l153.6 0L332.8 64 179.2 64 179.2 217.6zM435.2 217.6l153.6 0L588.8 64 435.2 64 435.2 217.6zM691.2 217.6l153.6 0L844.8 64l-153.6 0L691.2 217.6zM953.6 774.4 832 774.4 832 870.4c0 12.8-6.4 19.2-19.2 19.2l-89.6 0c-12.8 0-19.2-6.4-19.2-19.2l0-96L320 774.4 320 870.4c0 12.8-6.4 19.2-19.2 19.2L211.2 889.6C204.8 889.6 192 883.2 192 870.4l0-96L70.4 774.4C32 774.4 0 742.4 0 704l0-755.2c0-38.4 32-70.4 70.4-70.4l876.8 0c38.4 0 70.4 32 70.4 70.4L1017.6 704C1024 742.4 992 774.4 953.6 774.4L953.6 774.4zM934.4-25.6c0-6.4-6.4-12.8-12.8-12.8L96-38.4c-6.4 0-12.8 6.4-12.8 12.8L83.2 556.8c0 6.4 6.4 12.8 12.8 12.8l825.6 0c6.4 0 12.8-6.4 12.8-12.8L934.4-25.6 934.4-25.6z"  horiz-adv-x="1024" />

    
    <glyph glyph-name="message" unicode="&#54835;" d="M1006.730793-35.961524l-241.896814 240.233854c57.308182 72.850468 92.869956 163.545784 92.869956 263.387383 0 236.588132-191.752155 428.340287-428.340287 428.340287S1.02336 704.183885 1.02336 467.595753s191.752155-428.340287 428.340287-428.340287c97.794878 0 186.891193 34.090693 258.974141 89.224235l242.472455-240.809494c10.489444-10.425484 24.304809-15.670206 37.928295-15.670206 13.879325 0 27.630731 5.244722 38.184135 15.862086C1027.965522-90.967146 1027.773641-56.876452 1006.730793-35.961524zM108.668082 467.595753c0 176.849469 143.846096 320.695565 320.695565 320.695565 176.849469 0 320.695565-143.846096 320.695565-320.695565 0-176.849469-143.846096-320.695565-320.695565-320.695565C252.514179 146.900187 108.668082 290.746284 108.668082 467.595753z"  horiz-adv-x="1024" />

    
    <glyph glyph-name="setting" unicode="&#54837;" d="M972.8 480l-64 0c-19.2 0-38.4 12.8-44.8 32l-12.8 38.4c-6.4 19.2 0 38.4 12.8 51.2l44.8 44.8c19.2 19.2 19.2 51.2 0 70.4l-64 64c-19.2 19.2-51.2 19.2-70.4 0l-44.8-44.8c-12.8-12.8-32-19.2-51.2-12.8l-38.4 12.8C627.2 742.4 608 761.6 608 780.8l0 64C608 870.4 588.8 896 563.2 896L512 896 460.8 896C435.2 896 416 870.4 416 844.8l0-64c0-19.2-12.8-38.4-32-44.8L345.6 723.2c-19.2-6.4-38.4 0-51.2 12.8L249.6 774.4c-19.2 19.2-51.2 19.2-70.4 0l-64-64c-19.2-19.2-19.2-51.2 0-70.4l44.8-44.8c12.8-12.8 19.2-32 12.8-51.2L160 518.4C153.6 499.2 134.4 480 115.2 480l-64 0C25.6 480 0 460.8 0 435.2l0-96c0-25.6 19.2-51.2 51.2-51.2l64 0c19.2 0 38.4-12.8 44.8-32l12.8-38.4c6.4-19.2 0-38.4-12.8-51.2l-44.8-44.8c-19.2-19.2-19.2-51.2 0-70.4l64-64c19.2-19.2 51.2-19.2 70.4 0l44.8 44.8c12.8 12.8 32 19.2 51.2 12.8l38.4-12.8c19.2-6.4 32-25.6 32-44.8l0-64c0-25.6 19.2-51.2 51.2-51.2L512-128l51.2 0c25.6 0 51.2 19.2 51.2 51.2l0 64c0 19.2 12.8 38.4 32 44.8l38.4 12.8c19.2 6.4 38.4 0 51.2-12.8l44.8-44.8c19.2-19.2 51.2-19.2 70.4 0l64 64c19.2 19.2 19.2 51.2 0 70.4l-44.8 44.8c-12.8 12.8-19.2 32-12.8 51.2l12.8 38.4c6.4 19.2 25.6 32 44.8 32l64 0c25.6 0 51.2 19.2 51.2 51.2L1030.4 435.2C1024 460.8 998.4 480 972.8 480zM512 192c-108.8 0-192 83.2-192 192s83.2 192 192 192 192-83.2 192-192S620.8 192 512 192z"  horiz-adv-x="1031" />

    
    <glyph glyph-name="shield" unicode="&#54796;" d="M511.424 894.784c-92.544-136.128-229.12-146.24-385.792-175.552l0-272.256c0-273.28 163.456-503.552 386.304-573.888 222.912 70.336 386.368 300.544 386.368 573.888L898.304 719.104C741.248 747.968 604.096 758.272 511.424 894.784L511.424 894.784zM433.472 179.2 262.784 349.888 306.176 392.96l127.36-127.36 323.328 323.136L800 545.664 433.472 179.2 433.472 179.2zM433.472 179.2"  horiz-adv-x="1024" />

    
    <glyph glyph-name="minus" unicode="&#54849;" d="M0 440.96l1025.152 0 0-113.92L0 327.04 0 440.96 0 440.96zM0 440.96"  horiz-adv-x="1026" />

    
    <glyph glyph-name="plus" unicode="&#54833;" d="M463.552 417.92 0 417.92l0-113.472 463.552 0 0-429.76 113.472 0L577.024 304.448l444.288 0L1021.312 417.92 577.024 417.92 577.024 896 463.552 896 463.552 417.92z"  horiz-adv-x="1024" />

    
    <glyph glyph-name="subway" unicode="&#54829;" d="M512 896C275.2 896 83.2 870.4 83.2 678.4l0-512c0-102.4 83.2-185.6 185.6-185.6L192-102.4 192-128 832-128l0 25.6-83.2 83.2c102.4 0 185.6 83.2 185.6 185.6l0 512C940.8 870.4 748.8 896 512 896L512 896zM268.8 89.6C224 89.6 192 128 192 172.8c0 44.8 38.4 83.2 83.2 83.2s83.2-38.4 83.2-83.2C352 128 313.6 89.6 268.8 89.6L268.8 89.6zM460.8 409.6 192 409.6 192 678.4l268.8 0L460.8 409.6 460.8 409.6zM755.2 89.6c-44.8 0-83.2 38.4-83.2 83.2 0 44.8 38.4 83.2 83.2 83.2 44.8 0 83.2-38.4 83.2-83.2C832 128 800 89.6 755.2 89.6L755.2 89.6zM832 409.6l-268.8 0L563.2 678.4 832 678.4 832 409.6 832 409.6z"  horiz-adv-x="1024" />

    
    <glyph glyph-name="avatar" unicode="&#54786;" d="M512.128 483.136c113.856 0 206.4 92.544 206.4 206.4C718.592 803.776 626.048 896 512.128 896 397.952 896 305.728 803.776 305.728 689.6 305.728 575.68 397.952 483.136 512.128 483.136zM512.128 399.36c-223.68 0-408.448-178.496-437.632-422.592 0 0 155.264-104.768 437.632-104.768 282.048 0 437.312 104.768 437.312 104.768C920.32 220.864 735.552 399.36 512.128 399.36z"  horiz-adv-x="1024" />

    
    <glyph glyph-name="cart" unicode="&#54823;" d="M983.744 773.568 246.016 773.568C239.872 806.912 239.232 862.4 197.504 862.4L40.256 862.4c-21.504 0-39.296-20.096-39.296-44.352s17.792-44.416 39.296-44.416l125.248 0 108.8-571.136c-8.64-20.096-37.504-73.472-37.504-95.04 0-24.256 17.792-44.416 39.296-44.416l668.288 0c21.504 0 39.296 20.16 39.296 44.416s-17.792 44.352-39.296 44.352L340.032 151.808c6.144 13.952 14.656 28.48 14.656 44.416 0 15.936-5.504 33.344-8 48.576l641.344 84.672c20.224 2.752 35.008 22.208 35.008 44.416l0 355.2C1023.04 753.408 1005.184 773.568 983.744 773.568zM787.136-15.68c0-43.712 35.008-78.72 78.656-78.72 43.648 0 78.656 35.008 78.656 78.72 0 43.648-35.008 78.656-78.656 78.656C822.144 62.976 787.136 27.968 787.136-15.68zM236.864-15.68c0-43.712 35.008-78.72 78.656-78.72s78.656 35.008 78.656 78.72c0 43.648-35.008 78.656-78.656 78.656S236.864 27.968 236.864-15.68z"  horiz-adv-x="1024" />

    
    <glyph glyph-name="key" unicode="&#54802;" d="M907.887827 793.254637c136.993817-136.993817 136.993817-359.177066 0-496.106926-115.696459-115.696459-291.511586-132.516895-426.139029-52.891637l-147.930298-147.930298 99.579539-99.707451c10.680657-10.616701 10.680657-27.820873 0-38.373618l-78.218225-78.282181c-10.616701-10.616701-27.820873-10.616701-38.50153 0l-99.579539 99.707451-72.909874-72.909874c-10.616701-10.616701-27.820873-10.616701-38.373618 0L21.329336-8.690026c-10.616701 10.616701-10.616701 27.820873 0 38.373618l337.495972 337.432015C279.20005 501.743052 296.020486 677.558179 411.652989 793.254637 548.710761 930.248454 770.766098 930.248454 907.887827 793.254637L907.887827 793.254637zM550.245706 654.66192c-60.502405-60.502405-60.502405-158.546999 0-218.985448 60.502405-60.374493 158.546999-60.374493 218.985448 0 60.502405 60.502405 60.502405 158.546999 0 218.985448C708.792705 715.164325 610.748111 715.164325 550.245706 654.66192L550.245706 654.66192z"  horiz-adv-x="1024" />

    
    <glyph glyph-name="note" unicode="&#54791;" d="M844.8 806.4c0 44.8-32 83.2-76.8 83.2L76.8 889.6C32 889.6 0 851.2 0 806.4l0-851.2c0-44.8 32-83.2 76.8-83.2L768-128c44.8 0 76.8 38.4 76.8 83.2l0 224c0 44.8-19.2 51.2-44.8 19.2l-89.6-115.2c-6.4-12.8-25.6-25.6-38.4-32l-153.6-76.8c-38.4-19.2-57.6 0-44.8 38.4l51.2 160c6.4 12.8 12.8 32 19.2 44.8L832 620.8c6.4 12.8 12.8 32 12.8 44.8L844.8 806.4 844.8 806.4zM140.8 659.2c0 12.8 12.8 25.6 25.6 25.6l505.6 0c12.8 0 25.6-12.8 25.6-25.6l0-32c0-12.8-12.8-25.6-25.6-25.6L166.4 601.6c-12.8 0-25.6 12.8-25.6 25.6L140.8 659.2 140.8 659.2zM140.8 467.2c0 12.8 12.8 25.6 25.6 25.6l416 0c12.8 0 25.6-12.8 25.6-25.6l0-32c0-12.8-12.8-25.6-25.6-25.6L166.4 409.6c-12.8 0-25.6 12.8-25.6 25.6L140.8 467.2 140.8 467.2zM140.8 281.6c0 12.8 12.8 25.6 25.6 25.6l313.6 0c12.8 0 25.6-12.8 25.6-25.6l0-32c0-12.8-12.8-25.6-25.6-25.6L166.4 224c-12.8 0-25.6 12.8-25.6 25.6L140.8 281.6 140.8 281.6zM1011.2 576c19.2 25.6 12.8 57.6-6.4 76.8l-19.2 12.8c-19.2 19.2-51.2 12.8-70.4-6.4L582.4 192c-6.4-12.8-19.2-32-25.6-44.8l-19.2-57.6c-12.8-38.4 6.4-57.6 44.8-32l51.2 25.6c12.8 6.4 32 25.6 38.4 32L1011.2 576 1011.2 576z"  horiz-adv-x="1024" />

    
    <glyph glyph-name="triangle-top" unicode="&#54863;" d="M897.62 220.853l-355.958 380.677c-14.831 14.831-39.551 14.831-54.383 0l-355.957-375.732c-14.831-14.831-14.831-29.663-9.888-44.495s19.776-24.719 34.607-24.719l711.914 0c14.831 0 29.663 9.888 34.607 24.719 9.888 14.831 4.943 29.663-4.943 39.551z"  horiz-adv-x="1025" />

    
    <glyph glyph-name="uncheck" unicode="&#54864;" d="M512 812.8c236.8 0 428.8-192 428.8-428.8s-192-428.8-428.8-428.8-428.8 192-428.8 428.8S275.2 812.8 512 812.8M512 896C230.4 896 0 665.6 0 384s230.4-512 512-512 512 230.4 512 512S793.6 896 512 896L512 896z"  horiz-adv-x="1024" />

    
    <glyph glyph-name="warn" unicode="&#54784;" d="M1010.814 21.901l-457.879 758.951c-12.545 12.545-25.089 18.817-37.634 18.817s-25.089-6.273-37.634-18.817l-457.879-758.951c-6.273-12.545-6.273-31.362 0-43.907s18.817-18.817 37.634-18.817l922.032 0c12.545 0 31.362 6.273 37.634 18.817 0 18.817 0 31.362-6.273 43.907zM95.055 21.901l420.246 696.228 420.246-696.228-840.492 0zM471.394 122.259c0-24.249 19.658-43.907 43.907-43.907s43.907 19.658 43.907 43.907c0 24.249-19.658 43.907-43.907 43.907-24.249 0-43.907-19.658-43.907-43.907zM471.394 542.505l12.545-307.344c0-12.545 6.273-25.089 12.545-25.089l31.362 0c6.273 0 12.545 12.545 12.545 25.089l12.545 307.344c0 12.545-6.273 25.089-12.545 25.089l-56.451 0c-6.273-6.273-12.545-12.545-12.545-25.089z"  horiz-adv-x="1024" />

    
    <glyph glyph-name="remove-hover" unicode="&#55042;" d="M723.426 871.14l-172.874-35.39c-3.57 22.486-20.607 37.957-37.77 34.45l-77.356-15.847c-17.163-3.508-28.311-24.741-24.678-47.227l-172.874-35.39c-38.208-7.766-63.513-50.923-56.309-95.771l624.351 127.777c-7.203 44.909-44.346 75.226-82.491 67.396zM219.335-53.299c0-42.781 28.249-77.731 62.761-77.731l422.1 0c34.512 0 62.761 35.013 62.761 77.731l0 697.635-547.622 0 0-697.635zM623.961 518l78.044 0 0-554.638-78.044 0 0 554.638zM456.537 518l78.044 0 0-554.638-78.044 0 0 554.638zM290.49 518l78.044 0 0-554.638-78.044 0 0 554.638z"  horiz-adv-x="1024" />

    
    <glyph glyph-name="rent" unicode="&#54792;" d="M1011.492571 448.731429 532.626286 847.798857C531.602286 848.603429 530.505143 848.822857 529.481143 849.554286c-1.901714 1.170286-3.584 2.194286-5.558857 2.998857C521.874286 853.284571 520.045714 853.796571 517.997714 854.235429 516.022857 854.601143 514.048 854.820571 512 854.820571c-2.048 0-3.949714-0.292571-5.997714-0.585143C503.881143 853.796571 502.052571 853.284571 500.077714 852.553143 498.102857 851.748571 496.347429 850.724571 494.518857 849.408 493.568 848.822857 492.324571 848.603429 491.373714 847.798857L12.580571 448.731429c-12.507429-10.386286-15.140571-28.525714-6.363429-42.130286l88.795429-136.411429c4.681143-7.021714 11.995429-12.068571 20.406857-13.897143 8.411429-1.682286 17.115429 0 24.137143 4.608l31.305143 20.48 70.363429-342.601143c2.998857-14.921143 16.164571-25.6 31.451429-25.6l478.793143 0c15.286857 0 28.452571 10.678857 31.524571 25.6l70.290286 342.601143 31.305143-20.48c7.094857-4.608 15.945143-6.144 24.210286-4.608 8.411429 1.828571 15.652571 6.875429 20.406857 13.897143l88.795429 136.411429C1026.633143 420.205714 1023.853714 438.345143 1011.492571 448.731429L1011.492571 448.731429zM512 281.307429c-78.628571 0-142.628571 64.073143-142.628571 142.701714 0 78.701714 64 142.701714 142.628571 142.701714 78.701714 0 142.701714-64 142.701714-142.701714C654.701714 345.380571 590.701714 281.307429 512 281.307429L512 281.307429z"  horiz-adv-x="1024" />

    
    <glyph glyph-name="sale" unicode="&#54793;" d="M1010.468571 448.585143 532.553143 846.994286C531.602286 847.725714 530.358857 848.018286 529.334857 848.676571c-1.828571 1.170286-3.584 2.194286-5.485714 2.998857C521.947429 852.406857 519.972571 852.918857 517.997714 853.357714 515.949714 853.723429 514.048 853.942857 512 853.942857c-2.048 0-4.022857-0.292571-5.997714-0.585143C503.954286 852.918857 502.052571 852.406857 500.077714 851.675429 498.176 850.870857 496.347429 849.846857 494.518857 848.603429 493.494857 848.018286 492.397714 847.725714 491.446857 846.994286L13.531429 448.585143C1.024 438.272-1.755429 420.132571 7.168 406.528l88.576-136.118857c4.681143-7.021714 11.995429-12.068571 20.333714-13.824 8.411429-1.682286 17.042286 0 24.137143 4.608L171.446857 281.6l70.144-342.016c3.072-14.848 16.164571-25.6 31.451429-25.6l477.915429 0c15.213714 0 28.379429 10.678857 31.378286 25.6L852.48 281.6l31.305143-20.406857c7.094857-4.608 15.798857-6.144 24.210286-4.608 8.411429 1.828571 15.579429 6.875429 20.260571 13.824l88.576 136.118857C1025.755429 420.132571 1022.976 438.272 1010.468571 448.585143L1010.468571 448.585143zM652.8 367.177143l0-48.128-108.982857 0 0-37.010286 108.982857 0 0-48.128-108.982857 0 0-120.905143-63.634286 0 0 120.905143-108.982857 0L371.2 282.038857l108.982857 0L480.182857 319.049143l-108.982857 0L371.2 367.177143l84.333714 0L342.747429 550.619429l62.829714 0L512 381.732571l106.422857 168.886857 62.829714 0L568.393143 367.177143 652.8 367.177143 652.8 367.177143z"  horiz-adv-x="1024" />

    
    <glyph glyph-name="remove" unicode="&#54808;" d="M781.358 799.065l-190.079 0.235c0 21.844-15.443 39.754-34.293 39.754l-85.087 0.059c-18.908 0-34.352-17.851-34.411-39.695l-190.079 0.235c-41.985 0.059-76.337-35.644-76.396-79.332l686.564-0.764c0.059 43.689-34.235 79.45-76.22 79.508zM223.274-22.675c0-40.928 30.534-74.458 67.882-74.458l456.789 0c37.346 0 67.882 33.53 67.882 74.458l0 668.009-592.553 0 0-668.009zM661.155 524.368l84.441 0 0-531.131-84.441 0 0 531.131zM479.943 524.368l84.441 0 0-531.131-84.441 0 0 531.131zM300.258 524.368l84.441 0 0-531.131-84.441 0 0 531.131z"  horiz-adv-x="1024" />

    
    <glyph glyph-name="home" unicode="&#54814;" d="M880.713143 283.355429c-100.790857 94.866286-202.093714 189.293714-303.908571 283.062857C536.210286 603.867429 488.374857 603.428571 447.853714 566.418286c-101.595429-92.745143-202.971429-185.709714-303.689143-279.405714C136.484571 279.844571 130.925714 266.605714 130.633143 256c-1.462857-53.101714-0.658286-209.846857-1.024-262.948571-0.438857-58.733714 13.750857-73.728 73.654857-74.532571 50.541714-0.658286 101.010286-0.219429 151.552 0 7.387429 0 14.774857 1.609143 25.307429 2.779429 0 49.078857-0.585143 199.68 0.146286 246.564571 0.585143 39.204571 7.899429 45.933714 46.08 46.08 55.734857 0.219429 111.469714 0.219429 167.204571 0 37.449143-0.146286 45.494857-8.411429 45.641143-46.518857 0.219429-46.957714 0.073143-197.632 0.073143-247.515429 69.339429 0 135.387429-1.755429 201.289143 0.731429 34.084571 1.243429 52.297143 25.965714 52.662857 62.829714 0.585143 55.734857 0.731429 215.186286-0.438857 270.921143C892.708571 264.265143 887.808 276.699429 880.713143 283.355429zM1004.032 418.011429c-4.022857 4.534857-8.411429 8.850286-12.726857 13.165714-41.252571 40.082286-82.432 80.164571-123.757714 120.100571C778.020571 637.805714 688.347429 724.333714 598.893714 810.934857 575.634286 833.389714 549.814857 849.92 500.150857 849.773714 478.866286 849.481143 450.267429 831.341714 424.082286 806.692571 298.934857 689.298286 173.348571 572.342857 48.054857 455.094857 37.229714 445.001143 25.892571 435.273143 16.310857 424.082286c-16.676571-19.456-21.430857-42.130286-9.581714-65.536 11.776-23.332571 32.694857-36.205714 58.002286-30.281143 19.309714 4.461714 39.936 13.531429 54.345143 26.697143C221.403429 448.365714 322.048 543.451429 423.497143 637.732571 499.565714 708.388571 528.384 707.803429 603.648 636.342857c101.741714-96.548571 203.629714-192.877714 305.517714-289.28 6.290286-5.924571 12.946286-11.849143 20.260571-16.310857 27.574857-16.896 64.658286-11.556571 83.163429 11.483429C1030.070857 364.105143 1026.998857 391.972571 1004.032 418.011429z"  horiz-adv-x="1024" />

    
    <glyph glyph-name="notification" unicode="&#54831;" d="M600.256 820.48c-13.44 18.24-32.704 28.992-55.808 31.168L537.664 852.096c-19.456 0-40.832-7.744-65.536-23.936C469.376 826.368 462.08 821.12 450.176 812.48 439.104 804.352 425.408 794.24 409.152 782.08 393.024 770.048 375.04 756.672 355.072 742.144 334.976 727.36 314.432 712.128 293.888 696.768c-45.824-33.664-96.448-71.36-152.064-113.28L99.904 583.488c-58.24 0-98.624-39.488-98.624-87.04l0-6.016 0-219.52c0-24.704 10.368-46.656 30.08-63.616 18.24-15.744 41.152-23.68 68.224-23.68l16.512 0c7.744 0 15.296 0.32 18.432 0.832 3.136 0 6.336 0.064 9.536 0.192 33.024-24.256 66.112-48.768 98.816-73.28 31.616-24.064 65.856-50.432 102.592-79.104 36.672-28.672 71.488-56.192 103.872-82.176 25.28-20.992 48.576-32.064 71.232-33.92 3.072-0.256 6.016-0.32 8.896-0.32 20.48 0 38.464 5.824 53.44 17.344 15.296 11.776 26.624 27.456 33.728 46.912 6.08 16.576 9.216 32.896 9.216 48.32L625.856 727.424c0 13.376-1.536 28.16-4.672 43.584C617.6 790.016 610.624 806.656 600.256 820.48L600.256 820.48zM1011.2 468.928c-7.68 27.392-18.368 53.184-32.064 77.312-13.632 24.192-29.952 46.464-48.96 67.008-18.944 20.544-39.36 38.656-61.376 54.08-7.68 6.592-16.576 9.792-26.688 9.792-11.84 0-22.08-4.288-30.656-12.928s-12.928-18.944-12.928-30.848c0-14.848 6.272-26.816 18.688-35.776 33.792-23.808 61.952-54.272 84.416-91.2 22.464-36.928 33.792-77.76 33.792-122.496 0-22.08-2.944-43.328-8.896-63.872-5.824-20.608-14.144-40-24.768-58.176-10.624-18.176-23.168-35.008-37.376-50.56-14.208-15.488-29.696-28.928-46.208-40.256l-0.96-0.96c-0.576-0.576-1.152-1.024-1.792-1.344-0.576-0.32-1.152-0.768-1.792-1.344-10.048-8.96-15.104-19.968-15.104-33.024 0-11.904 4.288-22.208 12.928-30.848 8.64-8.64 18.88-12.928 30.656-12.928 9.472 0 17.728 2.688 24.96 8 22.464 15.488 43.264 33.536 62.208 54.08 18.944 20.544 35.392 43.136 49.344 67.52 13.952 24.448 24.768 50.368 32.448 77.76 7.68 27.456 11.52 56.064 11.52 85.888C1022.72 413.184 1018.944 441.408 1011.2 468.928L1011.2 468.928zM785.152 267.712c11.84 15.488 21.632 32.768 29.312 51.84 7.68 19.072 11.584 40.576 11.584 64.384 0 25.024-3.712 46.336-11.072 63.872-7.424 17.6-17.344 35.008-29.76 52.288-4.736 6.592-9.792 12.352-15.104 17.408-5.312 5.056-12.16 7.616-20.48 7.616-10.624 0-19.712-3.904-27.136-11.648-7.424-7.744-11.072-16.96-11.072-27.712 0-5.44 0.832-10.112 2.624-14.272 2.368-6.528 5.632-12.864 9.792-18.752 4.16-6.016 8.128-12.224 12.032-18.752 3.904-6.592 7.104-13.888 9.792-21.888 2.56-8 3.904-17.408 3.904-28.16 0-11.328-1.344-21.056-3.968-29.056-2.624-8-5.888-15.232-9.792-21.44-3.904-6.272-7.872-12.352-12.032-18.368-4.16-5.888-7.68-12.16-10.624-18.752l0.96 0c-1.792-4.736-2.624-9.536-2.624-14.272 0-10.752 3.712-19.968 11.072-27.712 7.424-7.744 16.512-11.648 27.136-11.648 8.256 0 15.104 2.56 20.48 7.616C775.296 255.424 780.416 261.12 785.152 267.712L785.152 267.712z"  horiz-adv-x="1024" />

    
    <glyph glyph-name="rmb" unicode="&#54788;" d="M871.738 834l-252.471-397.674 202.762 0 0-74.564-252.471 0 0-111.191 252.471 0 0-74.564-252.471 0 0-242.006-115.117 0 0 242.006-251.163 0 0 74.564 251.163 0 0 111.193-251.163 0 0 74.564 201.453 0-252.471 397.674 130.814 0 228.924-385.901 228.924 385.901 130.814 0z"  horiz-adv-x="1024" />

    
    <glyph glyph-name="notice" unicode="&#55041;" d="M64 556.8c-19.2 0-32-12.8-44.8-25.6C6.4 518.4 6.4 499.2 6.4 480l19.2-166.4c0-19.2 12.8-32 25.6-44.8C64 262.4 76.8 256 96 256l64 6.4L134.4 563.2 64 556.8zM1011.2 486.4c-6.4 38.4-12.8 76.8-19.2 115.2C985.6 640 972.8 678.4 960 716.8c-12.8 38.4-25.6 70.4-44.8 96-19.2 32-38.4 51.2-57.6 64C838.4 896 819.2 896 793.6 896c-25.6-6.4-51.2-25.6-76.8-57.6-25.6-32-57.6-57.6-96-83.2C588.8 736 550.4 716.8 512 697.6 473.6 684.8 435.2 672 403.2 659.2 364.8 646.4 332.8 640 300.8 627.2 268.8 620.8 249.6 608 230.4 601.6 211.2 595.2 198.4 582.4 198.4 576l38.4-332.8c6.4-6.4 19.2-12.8 44.8-12.8 25.6 0 51.2-6.4 89.6-6.4 38.4 0 76.8 0 121.6-6.4 44.8 0 83.2-6.4 128-12.8 44.8-6.4 83.2-12.8 121.6-25.6 38.4-12.8 64-32 89.6-51.2 25.6-19.2 44.8-32 64-32 19.2 0 38.4 6.4 51.2 19.2 12.8 12.8 32 32 38.4 57.6 12.8 25.6 19.2 57.6 25.6 89.6 6.4 32 12.8 70.4 12.8 108.8C1017.6 409.6 1017.6 448 1011.2 486.4zM364.8 179.2l-89.6 6.4c-6.4 0-12.8 0-12.8-6.4C256 172.8 256 166.4 256 166.4c0-6.4 0-147.2 64-262.4 0 0 0-6.4 6.4-6.4C339.2-121.6 358.4-128 384-128c25.6 0 51.2 6.4 51.2 6.4C448-115.2 454.4-108.8 448-96l-64 256C384 172.8 377.6 179.2 364.8 179.2z"  horiz-adv-x="1024" />

    
    <glyph glyph-name="bell" unicode="&#54822;" d="M892.246 249.981c-92.113 75.825-91.863 298.93-91.863 301.301 0 168.687-140.915 234.401-183.103 250.315-13.23 43.81-55.542 74.514-104.844 74.514-49.052 0-91.239-30.454-104.719-74.015-182.229-64.965-184.101-249.005-184.101-250.814 0-232.092-87.058-299.554-89.055-300.99-56.604-47.18-59.411-112.832-59.411-118.761 10.797-75.013 61.409-101.661 105.093-101.661l657.584 0.188c33.388 0 60.285 9.424 79.819 28.146 31.391 29.83 31.203 72.205 31.203 73.641 0 75.95-55.23 117.138-56.604 118.137zM389.058-7.886c14.541-58.662 62.594-100.226 121.444-100.226 58.975 0 110.023 41.75 124.439 100.662l-245.884-0.437z"  horiz-adv-x="1024" />

    
    <glyph glyph-name="changeagentcall" unicode="&#54848;" d="M723.824-66c-58.069 0-133.068 38.687-185.711 71.116-70.529 43.456-146.482 103.543-213.97 169.294l-0.178 0.238-21.463 21.401c-65.759 67.419-125.854 143.483-169.375 214.002-32.433 52.636-71.124 127.626-71.124 185.687 0 62.114 44.475 128.044 63.553 153.498 14.844 19.91 67.012 84.766 111.248 84.766 18.185 0 37.679-11.862 63.434-38.567 22.715-23.546 44.595-52.934 58.844-73.381 19.257-27.421 37.023-56.093 50.139-80.892 21.105-40.058 23.549-57.227 23.549-66.645 0-18.956-9.897-35.529-29.511-49.001-12.997-8.942-28.438-15.678-43.462-22.175-10.076-4.352-26.233-11.326-32.373-16.214 2.146-9.12 11.507-31.117 36.845-68.374 23.669-34.693 54.253-72.308 81.916-100.742 28.378-27.599 65.938-58.18 100.695-81.846 37.261-25.394 59.201-34.812 68.382-36.899 4.887 6.14 11.865 22.295 16.217 32.368 6.499 15.023 13.236 30.521 22.118 43.397 13.474 19.612 30.048 29.566 49.006 29.566 9.479 0 26.649-2.505 66.653-23.605 24.743-13.055 53.478-30.818 80.903-50.014 20.45-14.307 49.721-36.124 73.33-58.896 26.649-25.692 38.513-45.303 38.513-63.486 0-44.231-64.806-96.271-84.718-111.233-25.398-18.896-91.335-63.366-153.458-63.366l0 0zM361.344 212.321c64.686-63.007 137.421-120.532 204.61-162.021 65.223-40.178 122.754-63.247 157.87-63.247 31.241 0 75.775 19.134 119.117 51.086 19.019 14.068 36.368 29.626 48.768 43.933 11.625 13.472 15.918 22.235 16.991 25.812-4.531 9.657-31.239 39.879-93.601 82.919-24.503 16.869-49.841 32.368-71.244 43.635-26.948 14.187-38.156 16.572-40.778 17.049-0.953-0.655-3.935-3.159-8.406-10.611-4.948-8.405-9.778-19.433-14.427-30.163-5.723-13.234-11.625-26.884-18.839-37.972-11.805-17.943-26.291-27.004-43.044-27.004l-1.013 0c-8.167 0.121-32.969 0.655-100.398 46.615-37.261 25.334-77.683 58.24-108.148 87.866l-0.477 0.537c-29.691 30.461-62.599 70.877-87.997 108.134-45.907 67.419-46.443 92.217-46.562 100.385-0.358 17.049 8.645 31.773 26.709 43.813 11.149 7.332 24.861 13.294 38.156 19.075 10.793 4.59 21.881 9.359 30.286 14.425 7.511 4.411 9.897 7.451 10.612 8.405-0.358 2.563-2.862 13.77-17.051 40.714-11.268 21.459-26.768 46.793-43.641 71.294-43.044 62.352-73.271 89.058-82.929 93.589-3.577-1.073-12.34-5.365-25.814-16.989-14.308-12.398-29.869-29.746-43.939-48.762-31.897-43.337-50.974-87.866-50.974-119.102 0-35.11 23.072-92.635 63.255-157.849 41.435-67.3 98.966-139.906 162.043-204.583l20.866-20.983z"  horiz-adv-x="1024" />

    
    <glyph glyph-name="evaluate" unicode="&#54850;" d="M947.2 742.4c-25.6 25.6-230.4 0-256-25.6C665.6 793.6 614.4 844.8 512 896 409.6 844.8 364.8 793.6 332.8 716.8 307.2 742.4 128 768 76.8 742.4c0-288 108.8-620.8 409.6-640l0-204.8C486.4-115.2 499.2-128 512-128c12.8 0 25.6 12.8 25.6 25.6l0 204.8C857.6 121.6 947.2 454.4 947.2 742.4zM512 179.2c-249.6 0-358.4 249.6-358.4 486.4C204.8 691.2 339.2 640 358.4 614.4 384 672 435.2 774.4 512 819.2c76.8-44.8 134.4-147.2 153.6-204.8 25.6 25.6 179.2 76.8 204.8 51.2C870.4 428.8 780.8 179.2 512 179.2zM435.2-51.2c-32 102.4-140.8 179.2-256 179.2-38.4 0-70.4-12.8-102.4-25.6l0 0c-12.8-6.4-19.2-19.2-19.2-32 0-19.2 19.2-38.4 38.4-38.4 12.8 0 19.2 6.4 25.6 12.8 19.2 6.4 44.8 6.4 70.4 6.4 70.4 0 134.4-38.4 166.4-102.4l0 0c0 0 0-6.4 0-6.4 0-19.2 19.2-38.4 38.4-38.4 19.2 0 38.4 19.2 38.4 38.4C435.2-51.2 435.2-51.2 435.2-51.2L435.2-51.2zM947.2 102.4 947.2 102.4c-32 12.8-64 25.6-102.4 25.6-115.2 0-224-76.8-256-179.2l0 0c0 0 0-6.4 0-6.4 0-19.2 19.2-38.4 38.4-38.4 19.2 0 38.4 19.2 38.4 38.4 0 0 0 6.4 0 6.4l0 0c32 57.6 96 102.4 166.4 102.4 25.6 0 44.8 0 70.4-6.4 6.4-6.4 19.2-12.8 25.6-12.8 19.2 0 38.4 19.2 38.4 38.4C966.4 83.2 953.6 96 947.2 102.4z"  horiz-adv-x="1024" />

    
    <glyph glyph-name="arrowright" unicode="&#54836;" d="M44.8 339.2l819.2 0-371.2-371.2c-19.2-19.2-19.2-44.8 0-64 19.2-19.2 44.8-19.2 64 0l448 448c19.2 19.2 19.2 44.8 0 64l-448 448C550.4 870.4 537.6 876.8 524.8 876.8 512 876.8 499.2 870.4 492.8 864c-19.2-19.2-19.2-44.8 0-64l371.2-371.2L44.8 428.8C19.2 428.8 0 409.6 0 384 0 358.4 19.2 339.2 44.8 339.2L44.8 339.2zM44.8 339.2"  horiz-adv-x="1024" />

    
    <glyph glyph-name="bill" unicode="&#54880;" d="M876.8 896 147.2 896C64 896 0 832 0 748.8L0-128l70.4 0 153.6 108.8L364.8-128 512-12.8l147.2-108.8 147.2 108.8 153.6-108.8L1024-121.6 1024 748.8C1024 832 960 896 876.8 896zM748.8 492.8l0-96L563.2 396.8l0-96 185.6 0 0-96L563.2 204.8l0-96L467.2 108.8l0 96L281.6 204.8 281.6 300.8l185.6 0L467.2 396.8 281.6 396.8 281.6 492.8l96 0L281.6 736l96 0 96-243.2 96 0 96 243.2 96 0-96-243.2L748.8 492.8z"  horiz-adv-x="1024" />

    
    <glyph glyph-name="attentionmore" unicode="&#54866;" d="M915.2 275.2c-57.6 0-108.8 44.8-108.8 108.8s44.8 108.8 108.8 108.8c57.6 0 108.8-44.8 108.8-108.8S979.2 275.2 915.2 275.2zM505.6 275.2c-57.6 0-108.8 44.8-108.8 108.8s44.8 108.8 108.8 108.8 108.8-44.8 108.8-108.8C614.4 326.4 569.6 275.2 505.6 275.2zM108.8 275.2C44.8 275.2 0 326.4 0 384s44.8 108.8 108.8 108.8 108.8-44.8 108.8-108.8S166.4 275.2 108.8 275.2z"  horiz-adv-x="1024" />

    
    <glyph glyph-name="messagenone" unicode="&#54913;" d="M729.6 563.2 294.4 563.2C275.2 563.2 256 544 256 524.8c0-19.2 19.2-38.4 38.4-38.4l435.2 0c19.2 0 38.4 19.2 38.4 38.4C768 544 748.8 563.2 729.6 563.2zM678.4 384 345.6 384C326.4 384 307.2 364.8 307.2 345.6s19.2-38.4 38.4-38.4l332.8 0c19.2 0 38.4 19.2 38.4 38.4S697.6 384 678.4 384zM512 896C230.4 896 0 697.6 0 454.4c0-121.6 64-236.8 166.4-320l128-96c-6.4-19.2-19.2-70.4-38.4-115.2-6.4-12.8 0-32 6.4-38.4C275.2-121.6 281.6-128 294.4-128c6.4 0 12.8 0 12.8 0 44.8 19.2 140.8 70.4 211.2 140.8 275.2 6.4 505.6 198.4 505.6 435.2C1024 697.6 793.6 896 512 896zM512 96C505.6 96 505.6 96 512 96c-19.2 0-38.4-25.6-38.4-25.6s-64-64-121.6-96c19.2 64 19.2 89.6 12.8 102.4 0 0-6.4 6.4-6.4 6.4l0 0c0 0 0 0 0 0 0 0 0 0 0 0-19.2 6.4-102.4 57.6-172.8 121.6C115.2 275.2 76.8 371.2 76.8 454.4c0 198.4 192 364.8 435.2 364.8 236.8 0 435.2-160 435.2-364.8C947.2 256 748.8 96 512 96z"  horiz-adv-x="1024" />

    
    <glyph glyph-name="circle1" unicode="&#54867;" d="M512 384m-505.6 0a7.9 7.9 0 1 0 1011.2 0 7.9 7.9 0 1 0-1011.2 0Z"  horiz-adv-x="1024" />

    
    <glyph glyph-name="iconfontbangzhu" unicode="&#55049;" d="M512.003 811.358c114.154 0 221.466-44.457 302.171-125.187 80.726-80.72 125.185-188.033 125.185-302.173 0-114.157-44.457-221.468-125.187-302.173-80.718-80.725-188.031-125.183-302.167-125.183-114.161 0-221.473 44.457-302.178 125.185-80.725 80.722-125.183 188.035-125.183 302.171 0 114.153 44.457 221.467 125.185 302.175 80.722 80.727 188.037 125.185 302.175 125.185M512.003 861.568c-127.57 0-247.482-49.689-337.681-139.892-90.199-90.177-139.89-210.107-139.89-337.678 0-127.568 49.691-247.481 139.89-337.675 90.199-90.227 210.131-139.89 337.681-139.89 127.547 0 247.477 49.687 337.673 139.89 90.207 90.176 139.892 210.107 139.892 337.675 0 127.571-49.686 247.481-139.892 337.678-90.196 90.224-210.105 139.892-337.673 139.892v0zM643.742 618.045c-31.603 28.17-72.837 42.277-123.729 42.277-57.74 0-103.356-16.955-136.886-50.887-33.524-33.935-50.279-80.166-50.279-138.719h0.064c0.885-18.377 16.062-33.005 34.658-33.005s33.774 14.627 34.66 33.005h0.022c0 0.441 0.007 0.875 0.010 1.313 0.001 0.128 0.010 0.254 0.010 0.384 0 0.074-0.005 0.147-0.005 0.221 0.554 86.815 38.682 130.243 114.468 130.243 29.273 0 53.421-8.499 72.433-25.457s28.529-38.704 28.529-65.242c0-30.9-17.632-62.238-52.948-93.977l-26.269-23.398c-25.723-22.969-42.23-42.953-49.463-59.908-7.233-16.976-10.847-44.336-10.847-82.089l0.009-0.086c-0.086-0.961-0.138-1.931-0.138-2.913 0-17.849 14.468-32.314 32.314-32.314 17.028 0 30.966 13.168 32.213 29.877l0.079 0.095 0.357 11.902c0 38.857 18.445 73.312 55.382 103.421 61.855 50.594 92.761 99.041 92.761 145.274 0.002 45.146-15.797 81.791-47.405 109.981zM468.338 137.497c0-24.113 19.548-43.661 43.661-43.661s43.661 19.548 43.661 43.661c0 24.113-19.548 43.661-43.661 43.661-24.113 0-43.661-19.548-43.661-43.661z"  horiz-adv-x="1024" />

    
    <glyph glyph-name="scancamera" unicode="&#54884;" d="M960 672l-192 0L768 684.8c0 51.2-32 89.6-83.2 89.6L339.2 774.4C288 774.4 256 736 256 684.8l0-6.4L64 678.4c-32 0-57.6-25.6-57.6-57.6l0-569.6c0-32 25.6-57.6 57.6-57.6L960-6.4c32 0 57.6 25.6 57.6 57.6L1017.6 614.4C1017.6 646.4 992 672 960 672L960 672zM512 83.2c-147.2 0-262.4 115.2-262.4 262.4S364.8 608 512 608s262.4-115.2 262.4-262.4S659.2 83.2 512 83.2L512 83.2zM332.8 345.6c0 102.4 83.2 179.2 179.2 179.2s179.2-83.2 179.2-179.2S614.4 160 512 160 332.8 243.2 332.8 345.6L332.8 345.6 332.8 345.6z"  horiz-adv-x="1024" />

    
    <glyph glyph-name="iconfont31zhuanfa" unicode="&#54855;" d="M914.686 302.977c-18.519 0-33.657-15.072-33.756-33.823l0-244.766c0-20.473-16.596-37.134-37.002-37.134l-707.666 0c-20.406 0-37.002 16.663-37.002 37.134l0 609.745c0 20.473 16.595 37.134 37.002 37.134l331.356 0c18.55 0.034 33.657 15.204 33.657 33.821 0 18.651-15.105 33.823-33.69 33.823l-336.027 0c-55.021 0-99.808-44.886-99.808-100.041l0-619.184c0-55.154 44.787-100.041 99.808-100.041l717.073 0c55.021 0 99.807 44.886 99.807 100.041l0 249.668c-0.099 18.55-15.236 33.622-33.754 33.622zM988.523 581.765l0 0.362-239.136 239.631-0.927-0.96c-5.134 2.882-10.93 4.406-16.927 4.406-19.314 0-35.015-15.735-35.015-35.079 0-6.029 1.522-11.826 4.406-16.962l-1.028-1.059 161.389-161.82-165.63-0.065c-269.676-33.622-335.893-200.477-355.404-459.519 0-19.347 15.701-35.079 35.013-35.079 15.769 0 29.151 10.5 33.523 24.911l1.59 9.308c20.505 244.996 68.801 365.873 286.538 390.188l164.37 0-154.233-154.663-6.26-8.811c-2.22-4.67-3.379-10.369-3.379-15.536 0-19.344 15.7-35.079 35.013-35.079 5.498 0 11.559 1.326 16.43 3.842l238.683 237.703c2.116 1.486 4.71 5.149 4.71 7.932-0.001 2.783-1.61 4.869-3.727 6.355z"  horiz-adv-x="1024" />

    
    <glyph glyph-name="nearbybank" unicode="&#54872;" d="M940.8-44.8l0 76.8-51.2 0L889.6 435.2l51.2 0 0 64 38.4 0c0 0 0 0 0 0 12.8 0 25.6 12.8 25.6 25.6 0 6.4-6.4 19.2-12.8 19.2L524.8 883.2c-6.4 6.4-19.2 6.4-32 0L25.6 544C19.2 537.6 12.8 531.2 19.2 518.4 19.2 512 32 505.6 38.4 505.6l44.8 0 0-64 51.2 0 0-409.6L83.2 32l0-76.8L12.8-44.8l0-76.8 1004.8 0 0 76.8L940.8-44.8 940.8-44.8 940.8-44.8zM249.6 435.2l102.4 0 0-409.6L249.6 25.6 249.6 435.2 249.6 435.2zM460.8 435.2l102.4 0 0-409.6L460.8 25.6 460.8 435.2 460.8 435.2zM672 435.2l102.4 0 0-409.6-102.4 0L672 435.2 672 435.2zM672 435.2"  horiz-adv-x="1024" />

    
    <glyph glyph-name="nearbybus" unicode="&#54870;" d="M83.2 147.2c0-44.8 19.2-89.6 51.2-115.2l0-96c0-32 25.6-51.2 51.2-51.2l51.2 0c32 0 51.2 25.6 51.2 51.2l0 51.2 428.8 0 0-51.2c0-32 25.6-51.2 51.2-51.2L832-115.2c32 0 51.2 25.6 51.2 51.2l0 96c32 32 51.2 70.4 51.2 115.2L934.4 678.4c0 185.6-192 211.2-428.8 211.2-236.8 0-428.8-25.6-428.8-211.2L76.8 147.2 83.2 147.2zM275.2 89.6C230.4 89.6 192 128 192 172.8c0 44.8 38.4 76.8 76.8 76.8 44.8 0 76.8-38.4 76.8-76.8C352 128 313.6 89.6 275.2 89.6L275.2 89.6 275.2 89.6zM748.8 89.6c-44.8 0-76.8 38.4-76.8 76.8 0 44.8 38.4 76.8 76.8 76.8 44.8 0 76.8-38.4 76.8-76.8C832 128 793.6 89.6 748.8 89.6L748.8 89.6 748.8 89.6zM832 409.6 192 409.6 192 678.4l640 0L832 409.6 832 409.6zM832 409.6"  horiz-adv-x="1024" />

    
    <glyph glyph-name="nearbyhospital" unicode="&#54871;" d="M358.4 723.2c0 25.6 25.6 51.2 51.2 51.2l204.8 0c25.6 0 51.2-25.6 51.2-51.2l0-51.2 102.4 0L768 723.2c0 83.2-70.4 153.6-153.6 153.6L409.6 876.8c-83.2 0-153.6-70.4-153.6-153.6l0-51.2 102.4 0L358.4 723.2 358.4 723.2zM915.2 614.4 108.8 614.4C51.2 614.4 6.4 569.6 6.4 512l0-518.4c0-57.6 44.8-102.4 102.4-102.4l806.4 0c57.6 0 102.4 44.8 102.4 102.4L1017.6 512C1017.6 569.6 972.8 614.4 915.2 614.4L915.2 614.4zM512-6.4c-140.8 0-249.6 115.2-249.6 262.4C262.4 396.8 371.2 512 512 512c140.8 0 249.6-115.2 249.6-262.4C761.6 108.8 652.8-6.4 512-6.4L512-6.4zM563.2 409.6 460.8 409.6l0-102.4L358.4 307.2l0-102.4 102.4 0 0-102.4 102.4 0 0 102.4 102.4 0L665.6 307.2 563.2 307.2 563.2 409.6zM563.2 409.6"  horiz-adv-x="1024" />

    
    <glyph glyph-name="nearbyrestaurant" unicode="&#54868;" d="M288 326.4l147.2 147.2L70.4 844.8c-83.2-83.2-83.2-217.6 0-300.8L288 326.4 288 326.4zM646.4 422.4c83.2-38.4 192-12.8 281.6 70.4 102.4 102.4 121.6 243.2 44.8 326.4C896 896 748.8 876.8 646.4 774.4 563.2 691.2 537.6 576 576 492.8l-518.4-518.4 76.8-76.8 364.8 364.8 364.8-364.8 76.8 76.8L569.6 339.2 646.4 422.4 646.4 422.4zM646.4 422.4"  horiz-adv-x="1024" />

    
    <glyph glyph-name="nearbyschool" unicode="&#54869;" d="M192 332.8l0-185.6 320-172.8 320 172.8L832 332.8l-320-172.8L192 332.8 192 332.8zM512 793.6 6.4 518.4 512 249.6l409.6 224 0-320 89.6 0L1011.2 518.4 512 793.6 512 793.6zM512 793.6"  horiz-adv-x="1024" />

    
    <glyph glyph-name="nearbyshop" unicode="&#54873;" d="M748.8 505.6 550.4 832C544 844.8 524.8 851.2 512 851.2 499.2 851.2 480 844.8 473.6 832l-198.4-320L51.2 512c-25.6 0-44.8-19.2-44.8-51.2 0-6.4 0-6.4 0-12.8L128-12.8c12.8-38.4 44.8-70.4 89.6-70.4l595.2 0c44.8 0 76.8 32 89.6 70.4L1017.6 448l0 12.8c0 25.6-19.2 51.2-44.8 51.2L748.8 512 748.8 505.6 748.8 505.6zM377.6 505.6 512 723.2l134.4-217.6L377.6 505.6 377.6 505.6 377.6 505.6zM512 115.2c-51.2 0-89.6 44.8-89.6 96 0 51.2 38.4 96 89.6 96 51.2 0 89.6-44.8 89.6-96C601.6 160 563.2 115.2 512 115.2L512 115.2 512 115.2zM512 115.2"  horiz-adv-x="1024" />

    
    <glyph glyph-name="messagedynamic" unicode="&#54883;" d="M268.8 384l492.8 0 0-64-492.8 0 0 64ZM934.4 633.6c-25.6 51.2-57.6 96-102.4 134.4-44.8 38.4-89.6 70.4-147.2 89.6C576 902.4 448 902.4 332.8 857.6 281.6 838.4 230.4 806.4 185.6 768 147.2 729.6 115.2 684.8 89.6 633.6 64 582.4 51.2 531.2 51.2 473.6S64 358.4 89.6 307.2c25.6-51.2 57.6-96 102.4-134.4 44.8-38.4 89.6-70.4 147.2-89.6 102.4-38.4 224-44.8 326.4-12.8l166.4-198.4 0 294.4c44.8 38.4 76.8 76.8 102.4 128 25.6 57.6 44.8 115.2 44.8 172.8C972.8 531.2 960 582.4 934.4 633.6zM780.8 211.2 768 204.8l0-147.2-83.2 102.4-19.2-6.4C614.4 128 563.2 121.6 512 121.6c-217.6 0-396.8 160-396.8 352S294.4 825.6 512 825.6c217.6 0 396.8-160 396.8-352C908.8 371.2 864 281.6 780.8 211.2zM268.8 499.2l492.8 0 0-64-492.8 0 0 64ZM268.8 614.4l492.8 0 0-64-492.8 0 0 64Z"  horiz-adv-x="1024" />

    
    <glyph glyph-name="messageremind" unicode="&#54881;" d="M96 646.4c0 0-19.2 32-19.2 51.2 0 51.2 44.8 96 96 96 25.6 0 51.2-19.2 51.2-19.2 6.4-6.4 19.2 0 25.6 6.4l25.6 25.6c6.4 6.4 6.4 6.4 6.4 12.8S275.2 825.6 275.2 825.6c0 0-57.6 38.4-102.4 38.4-89.6 0-166.4-76.8-166.4-166.4 0-44.8 32-96 38.4-102.4 0-6.4 6.4-6.4 12.8-6.4 6.4 0 6.4 0 12.8 6.4l25.6 25.6C96 627.2 102.4 640 96 646.4zM723.2 595.2c-6.4 6.4-19.2 6.4-25.6 0L473.6 364.8c0 0-6.4 0-6.4 0L326.4 505.6C320 512 307.2 512 300.8 505.6L281.6 480C275.2 473.6 275.2 473.6 275.2 467.2c0-6.4 0-6.4 6.4-12.8L416 320c6.4-6.4 6.4-6.4 6.4-6.4l0 0c0 0 6.4-6.4 6.4-6.4l25.6-25.6c6.4-6.4 6.4-6.4 12.8-6.4s6.4 0 12.8 6.4l268.8 268.8c6.4 6.4 6.4 19.2 0 25.6L723.2 595.2zM819.2 697.6c-38.4 38.4-83.2 70.4-134.4 89.6C627.2 812.8 569.6 825.6 512 825.6c-57.6 0-115.2-12.8-166.4-32C294.4 768 249.6 736 211.2 697.6 172.8 659.2 140.8 614.4 115.2 563.2 96 512 83.2 454.4 83.2 396.8s12.8-115.2 32-166.4c19.2-51.2 51.2-96 89.6-134.4 19.2-19.2 57.6-51.2 57.6-51.2 0 0 0 0 0 0 0 0 0 0 0 0l-83.2-83.2c-6.4-6.4-6.4-19.2 0-25.6l25.6-25.6c6.4-6.4 19.2-6.4 25.6 0L332.8 0c0 0 6.4 6.4 12.8 0l6.4 0c51.2-25.6 108.8-32 166.4-32s115.2 12.8 166.4 32l6.4 0c0 0 6.4 0 6.4-6.4l96-96c6.4-6.4 6.4-6.4 12.8-6.4s6.4 0 12.8 6.4l25.6 25.6c6.4 6.4 6.4 19.2 0 25.6l-83.2 83.2c0 0 0 0 0 0 0 0 0 0 0 0 0 0 38.4 32 64 51.2 38.4 38.4 70.4 83.2 89.6 134.4 25.6 51.2 32 108.8 32 166.4S934.4 512 908.8 563.2C889.6 614.4 857.6 659.2 819.2 697.6zM876.8 396.8c0-198.4-160-358.4-358.4-358.4-198.4 0-358.4 160-358.4 358.4 0 198.4 160 358.4 358.4 358.4C710.4 755.2 876.8 595.2 876.8 396.8zM851.2 864c-44.8 0-96-32-102.4-38.4-6.4 0-6.4-6.4-6.4-12.8 0-6.4 0-6.4 6.4-12.8l25.6-25.6c6.4-6.4 19.2-6.4 25.6-6.4 0 0 32 19.2 51.2 19.2 51.2 0 96-44.8 96-96 0-25.6-19.2-51.2-19.2-51.2-6.4-6.4-6.4-19.2 6.4-25.6l25.6-25.6c0 0 6.4-6.4 12.8-6.4 6.4 0 12.8 0 12.8 6.4 0 0 38.4 57.6 38.4 102.4C1017.6 787.2 940.8 864 851.2 864z"  horiz-adv-x="1024" />

    
    <glyph glyph-name="arrow-down-bold" unicode="&#54292;" d="M512 364.8l-320 307.2-134.4-134.4 454.4-441.6 454.4 441.6-134.4 134.4-320-307.2z"  horiz-adv-x="1024" />

    
    <glyph glyph-name="arrow-up-bold" unicode="&#54293;" d="M832 96l134.4 134.4L512 672l-454.4-441.6L192 96l320 307.2L832 96z"  horiz-adv-x="1024" />

    
    <glyph glyph-name="complaints" unicode="&#54288;" d="M896 832 128 832C96 832 64 806.4 64 768l0-640c0-38.4 32-64 64-64l0-128 256 128 512 0c32 0 64 25.6 64 64L960 768C960 806.4 928 832 896 832zM915.2 198.4c0-96 0-96-83.2-96l-448 0L172.8 0l0 102.4c-44.8 0-64 0-64 51.2L108.8 755.2c0 19.2 12.8 32 32 32l742.4 0c19.2 0 32-12.8 32-32L915.2 198.4zM672 544m-32 0a0.5 0.5 0 1 0 64 0 0.5 0.5 0 1 0-64 0ZM352 544m-32 0a0.5 0.5 0 1 0 64 0 0.5 0.5 0 1 0-64 0ZM377.6 262.4c-6.4 0-12.8 0-12.8 6.4C352 275.2 345.6 288 358.4 300.8 396.8 352 448 377.6 512 377.6c64 0 115.2-25.6 153.6-76.8 6.4-12.8 6.4-25.6-6.4-38.4C652.8 256 633.6 256 627.2 268.8 601.6 307.2 556.8 326.4 512 326.4c-44.8 0-89.6-19.2-115.2-57.6C390.4 262.4 384 262.4 377.6 262.4z"  horiz-adv-x="1024" />

    
    <glyph glyph-name="messagenotice" unicode="&#54882;" d="M12.8 518.4l76.8 0 0-275.2-76.8 0 0 275.2zM761.6 518.4c19.2 12.8 44.8 25.6 64 38.4 57.6-102.4 64-230.4 6.4-332.8-19.2 12.8-44.8 25.6-64 32 38.4 83.2 38.4 185.6-6.4 262.4l0 0 0 0zM864 665.6c19.2 12.8 44.8 25.6 64 38.4 64-108.8 96-236.8 89.6-371.2-6.4-89.6-32-179.2-76.8-249.6-19.2 12.8-44.8 25.6-64 32 83.2 172.8 76.8 390.4-12.8 550.4l0 0 0 0zM588.8 678.4c-128-70.4-256-128-384-198.4l0-204.8c128-64 249.6-128 377.6-192 6.4-6.4 19.2-6.4 32-6.4 12.8 6.4 12.8 19.2 12.8 25.6l0 556.8c0 6.4 0 25.6-12.8 25.6-12.8-6.4-19.2-6.4-25.6-6.4l0 0 0 0zM601.6 761.6l12.8 0c19.2 0 38.4-12.8 57.6-25.6 19.2-19.2 25.6-57.6 25.6-83.2l0-550.4c0-44.8-32-96-83.2-96l-12.8 0c-19.2 0-32 6.4-51.2 12.8-140.8 76.8-281.6 140.8-416 217.6l0 294.4c140.8 70.4 281.6 140.8 416 211.2 19.2 6.4 38.4 12.8 51.2 19.2l0 0 0 0zM601.6 761.6z"  horiz-adv-x="1024" />

    
    <glyph glyph-name="house-consultant" unicode="&#54276;" d="M512 889.6c-121.6 0-217.6-96-217.6-217.6S390.4 460.8 512 460.8c121.6 0 217.6 96 217.6 217.6S633.6 889.6 512 889.6zM512 505.6c-96 0-172.8 76.8-172.8 166.4C345.6 768 422.4 844.8 512 844.8c96 0 172.8-76.8 172.8-166.4C684.8 582.4 608 505.6 512 505.6zM588.8 454.4C576 460.8 563.2 448 556.8 435.2L524.8 358.4 499.2 358.4 467.2 435.2C460.8 448 454.4 460.8 435.2 454.4 256 416 128 262.4 128 83.2c0-57.6 12.8-96 38.4-128C179.2-57.6 192-64 204.8-51.2c6.4 6.4 12.8 12.8 12.8 19.2 0 6.4 0 12.8-6.4 19.2-19.2 19.2-25.6 51.2-25.6 96 0 140.8 96 268.8 230.4 307.2L448 320c6.4-12.8 12.8-19.2 25.6-19.2l70.4 0C563.2 300.8 569.6 307.2 576 320l25.6 76.8c140.8-38.4 230.4-166.4 230.4-307.2 0-44.8-6.4-76.8-25.6-96-6.4-6.4-6.4-12.8-6.4-19.2 0-6.4 6.4-12.8 12.8-19.2 6.4-6.4 12.8-6.4 19.2-6.4 6.4 0 19.2 6.4 25.6 12.8 25.6 32 38.4 76.8 38.4 128C896 262.4 768 416 588.8 454.4zM825.6-44.8C825.6-44.8 825.6-44.8 825.6-44.8L825.6-44.8 825.6-44.8zM601.6 25.6l-64 230.4c0 6.4 0 6.4-6.4 6.4l0 0c0 0 0 0 0 0l0 0c0 6.4-6.4 6.4-12.8 12.8l-6.4 0c0 0 0 0-6.4 0L512 281.6l-6.4 0-6.4 0 0 0c-6.4 0-6.4-6.4-12.8-6.4 0 0 0 0 0 0L480 262.4l-70.4-230.4c0-6.4 0-19.2 0-25.6l64-108.8 12.8-19.2 6.4 0c6.4 0 6.4-6.4 12.8-6.4l0 0c0 0 0 0 0 0l0 0c6.4 0 6.4 0 12.8 6.4L601.6 0C601.6 12.8 608 19.2 601.6 25.6zM505.6-64l-51.2 83.2L512 192l44.8-172.8L505.6-64z"  horiz-adv-x="1024" />

    
    <glyph glyph-name="entrust-mgmt" unicode="&#54273;" d="M979.2 627.2 960 640c-19.2 19.2-44.8 12.8-64-6.4l-307.2-422.4c-6.4-12.8-19.2-32-19.2-38.4l-12.8-51.2c-12.8-38.4 6.4-51.2 38.4-32l44.8 25.6c12.8 6.4 25.6 19.2 32 32l313.6 416C998.4 576 998.4 608 979.2 627.2zM800 0c0-25.6-19.2-38.4-38.4-38.4L134.4-38.4c-19.2 0-38.4 19.2-38.4 38.4L96 768c0 25.6 19.2 38.4 38.4 38.4l633.6 0c19.2 0 38.4-19.2 38.4-38.4l0-128 64 0L870.4 768c0 57.6-44.8 108.8-102.4 108.8L134.4 876.8C76.8 876.8 32 832 32 768L32 0c0-57.6 44.8-108.8 102.4-108.8l633.6 0c57.6 0 102.4 51.2 102.4 108.8l0 204.8-64 0L806.4 0zM704 608 704 633.6c0 12.8-12.8 25.6-25.6 25.6L217.6 659.2C204.8 659.2 192 646.4 192 633.6l0-32c0-12.8 12.8-25.6 25.6-25.6l460.8 0C691.2 582.4 704 595.2 704 608zM620.8 428.8 620.8 460.8c0 12.8-12.8 25.6-25.6 25.6L217.6 486.4C204.8 480 192 473.6 192 460.8l0-32c0-12.8 12.8-25.6 25.6-25.6l377.6 0C608 409.6 620.8 416 620.8 428.8zM217.6 313.6C204.8 313.6 192 300.8 192 288L192 256c0-12.8 12.8-25.6 25.6-25.6l288 0c12.8 0 25.6 12.8 25.6 25.6L531.2 288c0 12.8-12.8 25.6-25.6 25.6L217.6 313.6z"  horiz-adv-x="1024" />

    
    <glyph glyph-name="my-account" unicode="&#54275;" d="M512 441.6c121.6 0 217.6 96 217.6 217.6 0 121.6-96 217.6-217.6 217.6S294.4 780.8 294.4 659.2C294.4 537.6 390.4 441.6 512 441.6zM512 812.8c83.2 0 153.6-70.4 153.6-153.6C665.6 576 595.2 505.6 512 505.6 428.8 505.6 358.4 576 358.4 659.2 358.4 742.4 428.8 812.8 512 812.8zM940.8 19.2C908.8 256 729.6 428.8 512 428.8c-217.6 0-396.8-172.8-428.8-409.6l0-19.2 19.2-12.8c6.4-6.4 153.6-102.4 416-102.4 262.4 0 409.6 96 416 102.4l19.2 12.8L940.8 19.2zM512-44.8c-192 0-313.6 57.6-358.4 76.8 32 192 179.2 332.8 358.4 332.8 179.2 0 326.4-134.4 358.4-332.8C825.6 12.8 704-44.8 512-44.8z"  horiz-adv-x="1024" />

    
    <glyph glyph-name="help-questions" unicode="&#54274;" d="M512.003 839.849c121.764 0 236.23-47.421 322.316-133.533 86.108-86.101 133.531-200.569 133.531-322.318 0-121.767-47.421-236.233-133.533-322.318-86.099-86.107-200.566-133.529-322.311-133.529-121.772 0-236.238 47.421-322.323 133.531-86.107 86.103-133.529 200.571-133.529 322.316 0 121.763 47.421 236.231 133.531 322.32 86.103 86.109 200.573 133.531 322.32 133.531M512.003 893.406c-136.075 0-263.981-53.002-360.193-149.218-96.212-96.189-149.216-224.114-149.216-360.19 0-136.073 53.004-263.98 149.216-360.187 96.212-96.242 224.14-149.216 360.193-149.216 136.05 0 263.975 52.999 360.185 149.216 96.221 96.188 149.218 224.114 149.218 360.187 0 136.076-52.998 263.98-149.218 360.19-96.209 96.239-224.112 149.218-360.185 149.218l0 0zM652.525 633.648c-33.71 30.048-77.693 45.095-131.978 45.095-61.589 0-110.246-18.085-146.012-54.279-35.759-36.197-53.631-85.51-53.631-147.967l0.068 0c0.944-19.602 17.133-35.205 36.969-35.205s36.026 15.602 36.971 35.205l0.023 0c0 0.47 0.007 0.933 0.011 1.401 0.001 0.137 0.011 0.271 0.011 0.41 0 0.079-0.005 0.157-0.005 0.236 0.591 92.603 41.261 138.926 122.099 138.926 31.225 0 56.982-9.066 77.262-27.154s30.431-41.284 30.431-69.591c0-32.96-18.807-66.387-56.478-100.242l-28.02-24.958c-27.438-24.5-45.045-45.817-52.761-63.902-7.715-18.108-11.57-47.292-11.57-87.562l0.01-0.092c-0.092-1.025-0.147-2.06-0.147-3.107 0-19.039 15.433-34.468 34.468-34.468 18.163 0 33.03 14.046 34.361 31.869l0.084 0.101 0.381 12.695c0 41.447 19.675 78.199 59.074 110.316 65.979 53.967 98.945 105.644 98.945 154.959 0.002 48.156-16.85 87.244-50.565 117.313zM465.427 121.063c0-25.721 20.851-46.572 46.572-46.572s46.572 20.851 46.572 46.572c0 25.721-20.851 46.572-46.572 46.572-25.721 0-46.572-20.851-46.572-46.572z"  horiz-adv-x="1024" />

    
    <glyph glyph-name="exit-login" unicode="&#54277;" d="M985.6 358.4 774.4 550.4 774.4 422.4 300.8 422.4 300.8 288 774.4 288 774.4 166.4ZM588.8-12.8 115.2-12.8l0 800 480 0 0-185.6 76.8 0L672 755.2c0 57.6-44.8 108.8-108.8 108.8L140.8 864c-57.6 0-108.8-44.8-108.8-108.8l0-742.4c0-57.6 44.8-108.8 108.8-108.8l422.4 0c57.6 0 108.8 44.8 108.8 108.8l0 108.8L588.8 121.6 588.8-12.8z"  horiz-adv-x="1024" />

    
    <glyph glyph-name="payment" unicode="&#54278;" d="M832 806.4l-224-377.6 160 0c25.6 0 51.2-25.6 51.2-51.2 0-25.6-25.6-51.2-51.2-51.2l-192 0c0 0-6.4 0-6.4-6.4l0-128c0 0 0-6.4 6.4-6.4l192 0c25.6 0 51.2-25.6 51.2-51.2l0 0c0-25.6-25.6-51.2-51.2-51.2l-192 0c0 0-6.4 0-6.4-6.4L569.6-64c0-25.6-25.6-51.2-51.2-51.2l-25.6 0c-25.6 0-51.2 25.6-51.2 51.2l0 147.2c0 0 0 6.4-6.4 6.4L243.2 89.6c-25.6 0-51.2 25.6-51.2 51.2l0 0c0 25.6 25.6 51.2 51.2 51.2l198.4 0c0 0 6.4 0 6.4 6.4l0 128c0 0 0 6.4-6.4 6.4L243.2 332.8C217.6 326.4 192 352 192 377.6c0 25.6 25.6 51.2 51.2 51.2l166.4 0L192 806.4C172.8 844.8 192 883.2 230.4 883.2L256 883.2c19.2 0 38.4-12.8 44.8-25.6C416 646.4 486.4 512 512 454.4c0 0 0 0 0 0 0 0 0 0 0 0 6.4 25.6 32 76.8 76.8 147.2l134.4 256c6.4 19.2 25.6 25.6 44.8 25.6l19.2 0C832 883.2 851.2 844.8 832 806.4"  horiz-adv-x="1024" />

    
    <glyph glyph-name="no-complaints" unicode="&#54281;" d="M512.003011 896C229.681877 896 0 666.317448 0 384.001504 0 101.682554 229.681877-128 512.003011-128 794.318122-128 1024 101.682554 1024 384.001504 1024 666.317448 794.318122 896 512.003011 896L512.003011 896ZM512.101802-102.243846C395.063392-102.243846 287.564351-60.491072 203.635275 8.939731L203.635275 447.463978C203.635275 460.709914 214.381286 471.487437 227.588491 471.487437L691.682058 471.487437C704.889264 471.487437 715.635274 460.709914 715.635274 447.463978L715.635274-57.001667C715.961638-56.977642 716.288-56.920586 716.614362-56.866534 654.422832-85.958944 585.126176-102.243846 512.101802-102.243846L512.101802-102.243846ZM844.515555 30.143437 844.515555 552.698746C844.515555 579.190616 823.026525 600.745666 796.609123 600.745666L332.51855 600.745666C306.10414 600.745666 284.612117 579.190616 284.612117 552.698746L284.612117 495.757139C292.59752 495.754134 300.57993 495.733114 308.565333 495.673056L308.565333 552.698746C308.565333 565.944682 319.311345 576.722205 332.51855 576.722205L796.609123 576.722205C809.816326 576.722205 820.562339 565.944682 820.562339 552.698746L820.562339 8.939731C795.546198-11.75648 768.422176-29.966262 739.588493-45.368304L739.588493 447.463978C739.588493 473.955846 718.096467 495.510896 691.682058 495.510896L227.588491 495.510896C201.174082 495.510896 179.682059 473.955846 179.682059 447.463978L179.682059 30.146438C85.515977 119.012224 26.612023 245.060317 26.612023 384.66665 26.612023 653.149842 244.400655 871.57715 512.101802 871.57715 779.799952 871.57715 997.58559 653.149842 997.58559 384.66665 997.58559 245.060317 938.681638 119.009219 844.515555 30.143437ZM284.345637 382.531818 639.901194 382.531818 639.901194 358.354038 284.345637 358.354038 284.345637 382.531818ZM284.543252 287.197133 639.703578 287.197133 639.703578 263.074576 284.543252 263.074576 284.543252 287.197133ZM284.543252 176.088627 639.703578 176.088627 639.703578 151.96607 284.543252 151.96607 284.543252 176.088627Z"  horiz-adv-x="1024" />

    
    <glyph glyph-name="upload-pic" unicode="&#54279;" d="M665.6 524.8l-230.4-307.2L320 377.6l-192-262.4L896 115.2 665.6 524.8zM281.6 467.2c44.8 0 76.8 32 76.8 76.8 0 38.4-32 76.8-76.8 76.8-44.8 0-76.8-32-76.8-76.8S236.8 467.2 281.6 467.2L281.6 467.2zM934.4 64 76.8 64 76.8 704l876.8 0 0-640L934.4 64zM934.4 768 89.6 768C44.8 768 6.4 736 6.4 691.2l0-620.8c0-38.4 32-76.8 76.8-76.8l851.2 0c44.8 0 76.8 32 76.8 76.8L1011.2 691.2C1017.6 736 979.2 768 934.4 768L934.4 768z"  horiz-adv-x="1024" />

    
    <glyph glyph-name="refresh" unicode="&#54289;" d="M1017.6 512 640 512l140.8 140.8c-70.4 70.4-166.4 108.8-268.8 108.8-102.4 0-198.4-38.4-268.8-108.8-70.4-70.4-108.8-166.4-108.8-268.8s38.4-198.4 108.8-268.8c70.4-70.4 166.4-108.8 268.8-108.8s198.4 38.4 268.8 108.8c6.4 6.4 12.8 12.8 19.2 19.2l96-83.2c-89.6-102.4-230.4-172.8-377.6-172.8-275.2 0-505.6 224-505.6 505.6s224 505.6 505.6 505.6c140.8 0 262.4-57.6 358.4-147.2l147.2 147.2L1024 512z"  horiz-adv-x="1024" />

    
    <glyph glyph-name="favourite" unicode="&#54852;" d="M512-44.8c-12.8 0-32 6.4-38.4 12.8-294.4 160-454.4 339.2-467.2 512C0 537.6 6.4 582.4 19.2 627.2 64 736 172.8 812.8 294.4 812.8c83.2 0 166.4-38.4 217.6-96 57.6 64 134.4 96 217.6 96 121.6 0 230.4-76.8 275.2-192 12.8-38.4 19.2-83.2 12.8-147.2-25.6-288-460.8-505.6-473.6-512C531.2-44.8 524.8-44.8 512-44.8zM294.4 748.8c-96 0-179.2-57.6-211.2-147.2C70.4 569.6 64 531.2 70.4 480c12.8-153.6 160-313.6 435.2-460.8 0 0 6.4 0 6.4 0 0 0 0 0 0 0 6.4 0 422.4 211.2 441.6 460.8 6.4 51.2 0 89.6-12.8 115.2-32 89.6-115.2 147.2-211.2 147.2-76.8 0-153.6-38.4-192-102.4L512 601.6 486.4 646.4C441.6 710.4 371.2 748.8 294.4 748.8z"  horiz-adv-x="1024" />

    
    <glyph glyph-name="house-schedule" unicode="&#54280;" d="M908.8 806.4 768 806.4c-6.4 19.2-12.8 32-25.6 32-12.8 0-19.2-12.8-25.6-32L307.2 806.4C307.2 832 294.4 844.8 281.6 844.8 268.8 844.8 262.4 832 256 806.4L115.2 806.4C64 806.4 19.2 768 19.2 710.4l0-691.2c0-51.2 44.8-96 96-96l787.2 0c51.2 0 96 44.8 96 96L998.4 710.4C1004.8 768 960 806.4 908.8 806.4zM940.8 25.6c0-19.2-12.8-32-32-32L115.2-6.4c-19.2 0-32 12.8-32 32L83.2 710.4c0 19.2 12.8 32 32 32l134.4 0 0-32c0-38.4 12.8-64 32-64 19.2 0 32 32 32 64L313.6 742.4l396.8 0 0-32c0-38.4 12.8-64 32-64 19.2 0 32 32 32 64L774.4 742.4l134.4 0c19.2 0 32-12.8 32-32L940.8 25.6zM115.2 614.4l793.6 0 0-64-793.6 0 0 64ZM313.6 416 217.6 416C198.4 416 185.6 403.2 185.6 384s12.8-32 32-32l96 0c19.2 0 32 12.8 32 32S332.8 416 313.6 416zM556.8 416 460.8 416C441.6 416 428.8 403.2 428.8 384s12.8-32 32-32l96 0C576 352 588.8 364.8 588.8 384S576 416 556.8 416zM806.4 416l-96 0c-19.2 0-32-12.8-32-32s12.8-32 32-32l96 0c19.2 0 32 12.8 32 32S825.6 416 806.4 416zM313.6 217.6 217.6 217.6c-19.2 0-32-12.8-32-32s12.8-32 32-32l96 0c19.2 0 32 12.8 32 32S332.8 217.6 313.6 217.6zM556.8 217.6 460.8 217.6c-19.2 0-32-12.8-32-32s12.8-32 32-32l96 0c19.2 0 32 12.8 32 32S576 217.6 556.8 217.6zM806.4 217.6l-96 0c-19.2 0-32-12.8-32-32s12.8-32 32-32l96 0c19.2 0 32 12.8 32 32S825.6 217.6 806.4 217.6z"  horiz-adv-x="1024" />

    
    <glyph glyph-name="heart" unicode="&#54812;" d="M1007.310751 620.8c-38.4 115.2-166.4 192-281.6 192-83.2 0-166.4-38.4-217.6-96C450.510751 780.8 373.710751 812.8 290.510751 812.8c-121.6 0-230.4-76.8-275.2-185.6C2.510751 588.8-3.889249 537.6 2.510751 480c12.8-172.8 179.2-352 473.6-512 6.4-6.4 19.2-6.4 25.6-12.8 6.4 0 6.4 0 12.8 0 12.8 0 19.2 0 32 6.4 19.2 6.4 454.4 224 480 531.2C1026.510751 537.6 1020.110751 588.8 1007.310751 620.8z"  horiz-adv-x="1027" />

    
    <glyph glyph-name="detail-more" unicode="&#54291;" d="M940.8 409.6 467.2 883.2C448 896 428.8 896 422.4 883.2c-12.8-12.8-12.8-32 0-44.8L883.2 384l-460.8-460.8c-12.8-12.8-12.8-25.6 0-38.4 12.8-12.8 32-6.4 44.8 0l473.6 473.6c6.4 6.4 12.8 19.2 12.8 25.6C947.2 396.8 947.2 403.2 940.8 409.6zM614.4 384c0 6.4-6.4 19.2-12.8 25.6L128 883.2C115.2 896 96 896 83.2 883.2c-12.8-12.8-12.8-32 0-44.8L544 384l-460.8-460.8c-12.8-12.8-12.8-25.6 0-38.4C96-128 121.6-128 128-115.2l473.6 473.6C608 364.8 614.4 377.6 614.4 384z"  horiz-adv-x="1024" />

    
    <glyph glyph-name="bread-crumbs" unicode="&#54290;" d="M710.4 384 256-76.8c-12.8-12.8-12.8-25.6 0-38.4 12.8-12.8 32-6.4 44.8 0L768 358.4c6.4 6.4 12.8 19.2 12.8 25.6 0 6.4-6.4 19.2-12.8 25.6L294.4 883.2C281.6 896 262.4 896 249.6 883.2 236.8 876.8 236.8 857.6 256 844.8L710.4 384 710.4 384zM710.4 384"  horiz-adv-x="1024" />

    
    <glyph glyph-name="depressed-face" unicode="&#54034;" d="M512 883.2C236.8 883.2 12.8 659.2 12.8 384c0-275.2 224-499.2 499.2-499.2s499.2 224 499.2 499.2C1011.2 659.2 787.2 883.2 512 883.2L512 883.2zM512-38.4c-230.4 0-422.4 185.6-422.4 422.4 0 230.4 185.6 422.4 422.4 422.4 230.4 0 422.4-185.6 422.4-422.4S742.4-38.4 512-38.4L512-38.4zM224 486.4c0 38.4 32 76.8 76.8 76.8s76.8-32 76.8-76.8S339.2 409.6 294.4 409.6 224 448 224 486.4L224 486.4zM665.6 486.4c0 25.6 12.8 51.2 38.4 64 25.6 12.8 51.2 12.8 76.8 0 25.6-12.8 38.4-38.4 38.4-64 0-25.6-12.8-51.2-38.4-64-25.6-12.8-51.2-12.8-76.8 0C684.8 435.2 665.6 460.8 665.6 486.4L665.6 486.4zM364.8 64c38.4 32 89.6 44.8 147.2 44.8s102.4-19.2 147.2-44.8c19.2-12.8 38.4-6.4 51.2 6.4 12.8 19.2 6.4 38.4-6.4 51.2-51.2 38.4-121.6 64-192 64s-134.4-25.6-192-64c-19.2-12.8-19.2-38.4-6.4-51.2C326.4 57.6 352 51.2 364.8 64L364.8 64z"  horiz-adv-x="1024" />

    
    <glyph glyph-name="dial" unicode="&#54033;" d="M243.2 454.4c70.4-160 185.6-288 326.4-371.2l108.8 121.6c12.8 12.8 32 19.2 51.2 12.8 57.6-19.2 115.2-32 179.2-32 25.6 0 51.2-25.6 51.2-57.6L960-64c0-32-19.2-57.6-51.2-57.6C441.6-121.6 64 307.2 64 832c0 32 19.2 57.6 51.2 57.6l172.8 0c25.6 0 51.2-25.6 51.2-57.6 0-70.4 12.8-134.4 25.6-198.4 6.4-19.2 0-38.4-12.8-57.6L243.2 454.4 243.2 454.4z"  horiz-adv-x="1024" />

    
    <glyph glyph-name="smiling-face" unicode="&#54032;" d="M512 883.2C236.8 883.2 12.8 659.2 12.8 384c0-275.2 224-499.2 499.2-499.2s499.2 224 499.2 499.2C1011.2 659.2 787.2 883.2 512 883.2L512 883.2zM512-38.4c-230.4 0-422.4 185.6-422.4 422.4 0 230.4 185.6 422.4 422.4 422.4 230.4 0 422.4-185.6 422.4-422.4S742.4-38.4 512-38.4L512-38.4zM224 486.4c0 38.4 32 76.8 76.8 76.8s76.8-32 76.8-76.8S339.2 409.6 294.4 409.6 224 448 224 486.4L224 486.4zM665.6 486.4c0 25.6 12.8 51.2 38.4 64 25.6 12.8 51.2 12.8 76.8 0 25.6-12.8 38.4-38.4 38.4-64 0-25.6-12.8-51.2-38.4-64-25.6-12.8-51.2-12.8-76.8 0C684.8 435.2 665.6 460.8 665.6 486.4L665.6 486.4zM364.8 185.6c38.4-32 89.6-44.8 147.2-44.8s102.4 19.2 147.2 44.8c19.2 12.8 38.4 6.4 51.2-6.4 12.8-19.2 6.4-38.4-6.4-51.2-51.2-38.4-121.6-64-192-64s-134.4 25.6-192 64c-19.2 12.8-19.2 38.4-6.4 51.2C326.4 192 352 198.4 364.8 185.6L364.8 185.6z"  horiz-adv-x="1024" />

    
    <glyph glyph-name="search-result" unicode="&#54295;" d="M544 352l134.4 0L678.4 396.8c-6.4 0-12.8 0-25.6 0C614.4 396.8 576 384 544 352L544 352zM499.2 236.8c0-6.4 0-12.8 0-25.6l185.6 0L684.8 262.4 499.2 262.4C499.2 256 499.2 243.2 499.2 236.8L499.2 236.8zM403.2 678.4 172.8 678.4l0-44.8 230.4 0L403.2 678.4zM659.2 25.6c-115.2 0-211.2 96-211.2 211.2S544 448 659.2 448s211.2-96 211.2-211.2S774.4 25.6 659.2 25.6L659.2 25.6zM659.2 492.8c-140.8 0-256-115.2-256-256 0-140.8 115.2-256 256-256 140.8 0 256 115.2 256 256C915.2 377.6 800 492.8 659.2 492.8L659.2 492.8zM1011.2-76.8l-121.6 121.6c-12.8-12.8-19.2-25.6-32-32l121.6-121.6c6.4-6.4 25.6-6.4 32 0C1017.6-102.4 1017.6-89.6 1011.2-76.8L1011.2-76.8zM172.8 492.8l230.4 0L403.2 537.6 172.8 537.6 172.8 492.8zM563.2 800 768 582.4 614.4 582.4c-25.6 0-44.8 19.2-44.8 44.8L569.6 800 563.2 800zM102.4 51.2c-25.6 0-44.8 19.2-44.8 44.8L57.6 793.6c0 25.6 19.2 44.8 44.8 44.8l416 0 0-211.2c0-51.2 38.4-96 96-96l172.8 0c6.4 0 12.8-6.4 12.8-12.8l0-19.2c19.2-6.4 32-19.2 44.8-32l0 64c0 12.8-6.4 38.4-19.2 51.2l-256 275.2C556.8 876.8 537.6 889.6 524.8 889.6L486.4 889.6 460.8 889.6 448 889.6 102.4 889.6c-51.2 0-96-38.4-96-96l0-697.6c0-51.2 38.4-96 96-96l364.8 0c-19.2 12.8-32 32-44.8 44.8L102.4 44.8zM172.8 262.4l0-44.8 185.6 0c0 6.4 0 12.8 0 25.6 0 6.4 0 12.8 0 25.6L172.8 268.8zM172.8 396.8l0-44.8 211.2 0C384 371.2 396.8 384 403.2 396.8L172.8 396.8z"  horiz-adv-x="1024" />

    
    <glyph glyph-name="solid-dots" unicode="&#54294;" d="M512 384m-128 0a2 2 0 1 0 256 0 2 2 0 1 0-256 0Z"  horiz-adv-x="1024" />

    
    <glyph glyph-name="ring" unicode="&#54296;" d="M512 889.6C236.8 889.6 6.4 659.2 6.4 384s224-505.6 505.6-505.6 505.6 224 505.6 505.6S787.2 889.6 512 889.6zM512 121.6c-147.2 0-262.4 121.6-262.4 262.4S364.8 646.4 512 646.4s262.4-121.6 262.4-262.4S659.2 121.6 512 121.6z"  horiz-adv-x="1024" />

    
    <glyph glyph-name="map-list" unicode="&#54306;" d="M6.4 780.8l115.2 0 0-115.2L6.4 665.6 6.4 780.8zM230.4 780.8l787.2 0 0-115.2L230.4 665.6 230.4 780.8zM6.4 441.6l115.2 0 0-115.2L6.4 326.4 6.4 441.6zM230.4 441.6l787.2 0 0-115.2L230.4 326.4 230.4 441.6zM6.4 102.4l115.2 0 0-115.2L6.4-12.8 6.4 102.4zM230.4 102.4l787.2 0 0-115.2L230.4-12.8 230.4 102.4z"  horiz-adv-x="1024" />

    
    <glyph glyph-name="map-pin" unicode="&#54305;" d="M512 889.6C307.2 889.6 147.2 723.2 147.2 512S512-121.6 512-121.6s364.8 422.4 364.8 633.6S716.8 889.6 512 889.6zM460.8 704"  horiz-adv-x="1024" />

    
    <glyph glyph-name="collected-solid-small" unicode="&#54304;" d="M755.086 503.891c-18.88 53.338-70.298 89.147-128.009 89.147-48.083 0-91.004-24.86-115.045-62.652-24.072 37.824-66.995 62.683-115.109 62.683-57.743 0-109.192-35.842-127.664-88.361-7.395-18.376-9.912-41.317-7.614-70.173 6.797-85.749 89.337-174.237 238.682-255.926 2.927-1.637 8.434-3.681 11.707-3.681 2.927 0 5.885 0.661 8.558 1.951 9.41 4.627 230.343 114.416 241.766 257.626 2.234 28.887-0.189 51.796-7.27 69.387z"  horiz-adv-x="1024" />

    
    <glyph glyph-name="collect-hollow-small" unicode="&#54297;" d="M751.153 503.577c-18.88 53.495-69.229 88.109-125.87 88.109-47.201 0-91.256-25.174-113.283-62.935-25.174 37.762-66.082 62.935-113.283 62.935-56.642 0-106.991-34.614-125.871-88.108-9.44-18.88-9.44-40.908-9.44-69.229 6.294-84.962 88.109-173.072 236.007-254.887 3.145-3.144 9.44-3.144 12.588-3.144 3.145 0 6.294 0 9.44 3.144 9.44 3.145 226.567 113.283 239.153 254.887 0 28.322 0 50.348-9.44 69.229zM722.833 437.495c-9.44-106.99-169.925-198.247-210.833-220.274-129.017 72.374-204.54 151.043-210.833 220.274 0 22.027 0 40.908 6.294 53.495 12.588 37.762 50.348 62.935 91.256 62.935 47.201 0 88.109-34.614 94.403-81.815 0-9.44 9.44-15.734 18.88-15.734 9.44 0 18.88 6.294 18.88 15.734 6.294 47.201 47.201 81.815 94.402 81.815 40.908 0 78.669-25.174 91.256-62.935 6.294-12.588 6.294-31.466 6.294-53.495z"  horiz-adv-x="1024" />

    
    <glyph glyph-name="checkbox-triangle" unicode="&#54307;" d="M0-128l1024 0L1024 896 0-128zM960 294.4l-332.8-332.8c-6.4-6.4-12.8-6.4-19.2-6.4-6.4 0-12.8 6.4-19.2 6.4 0 0 0 0 0 0L416 128l0 0c-6.4 6.4-12.8 12.8-12.8 19.2 0 19.2 12.8 32 32 32 6.4 0 19.2-6.4 19.2-12.8l0 0 147.2-147.2 313.6 313.6 0 0c6.4 6.4 12.8 6.4 19.2 6.4 19.2 0 32-12.8 32-32C966.4 307.2 966.4 300.8 960 294.4z"  horiz-adv-x="1024" />

    
    <glyph glyph-name="surrounding" unicode="&#55052;" d="M876.8 288 876.8 288c-6.4 0-6.4 0-12.8 0 0 0 0 0 0 0 0 0-6.4 0-6.4 0-6.4 0-19.2 6.4-25.6 6.4L832 64 198.4 64 198.4 300.8C185.6 294.4 179.2 294.4 172.8 294.4c0 0-6.4 0-6.4 0 0 0 0 0 0 0-6.4 0-6.4 0-12.8 0l0 0c-6.4 0-12.8 0-12.8 0-12.8 0-19.2 0-32 0l0-326.4c0-25.6 19.2-51.2 44.8-51.2l729.6 0c25.6 0 44.8 19.2 44.8 51.2L928 288c-12.8 0-19.2 0-32 0C883.2 288 883.2 288 876.8 288L876.8 288zM166.4 755.2l697.6 0c25.6 0 44.8 19.2 44.8 51.2 0 25.6-19.2 51.2-44.8 51.2L166.4 857.6C140.8 851.2 115.2 832 115.2 800 115.2 774.4 140.8 755.2 166.4 755.2L166.4 755.2zM928 704l-832 0L6.4 467.2c0-70.4 57.6-128 128-128s128 57.6 128 128c0-70.4 57.6-128 128-128s128 57.6 128 128c0-70.4 57.6-128 128-128 70.4 0 128 57.6 128 128 0-70.4 57.6-128 128-128s128 57.6 128 128L928 704 928 704zM928 704"  horiz-adv-x="1031" />

    
    <glyph glyph-name="down-small" unicode="&#55053;" d="M563.2 288 563.2 640 460.8 640 460.8 288 358.4 288 512 128 665.6 288Z"  horiz-adv-x="1024" />

    
    <glyph glyph-name="up-small" unicode="&#55045;" d="M563.008 478.592 563.008 126.464 460.992 126.464 460.992 478.592 358.976 478.592 512 641.536 665.024 478.592Z"  horiz-adv-x="1024" />

    
    <glyph glyph-name="no-network" unicode="&#54311;" d="M435.794 114.28c0-32.784 26.912-59.424 59.968-59.424s59.968 26.64 59.968 59.424c0 32.784-26.912 59.424-59.968 59.424S435.794 147.064 435.794 114.28zM731.202 167c0-13.264 10.656-24 24-24 13.248 0 24 10.656 24 24 0 13.248-10.656 24-24 24C741.938 191 731.202 180.344 731.202 167zM731.202 407.08l0-144.144c0-13.216 10.656-23.936 24-23.936 13.248 0 24 10.88 24 23.936L779.202 407.08c0 13.2-10.656 23.92-24 23.92C741.938 431 731.202 420.12 731.202 407.08zM568.002 287.8c0 103.824 84.176 188 188 188s188-84.176 188-188c0-103.84-84.176-188-188-188S568.002 183.96 568.002 287.8zM146.274 383.832c-10.432-12.944-8.528-31.968 4.304-42.496 12.88-10.576 31.808-8.528 42.192 4.336 73.76 91.232 184.24 143.552 302.992 143.552 36.624 0 72.448-4.976 106.656-14.528-31.696-25.312-56.88-58.48-72.512-96.576-11.248 1.392-22.656 2.112-34.144 2.112-91.472 0-176.224-44.752-226.816-119.664-9.312-13.792-5.744-32.576 7.936-41.952 5.184-3.552 11.024-5.216 16.832-5.216 9.6 0 19.04 4.624 24.832 13.2 39.408 58.416 105.664 93.264 177.2 93.264 6.176 0 12.304-0.272 18.384-0.784-1.408-10.496-2.128-21.2-2.128-32.08 0-132.56 107.456-240 240-240s240 107.44 240 240c0 132.544-107.456 240-240 240-27.632 0-54.16-4.672-78.864-13.264-55.136 23.424-115.28 35.872-177.376 35.872C358.866 549.608 231.474 489.16 146.274 383.832zM23.41 505.112c-10.896-12.56-9.632-31.632 2.848-42.592 12.464-11.008 31.44-9.712 42.304 2.848 106.544 122.816 262.272 193.264 427.2 193.264 164.96 0 320.672-70.48 427.184-193.296 5.936-6.832 14.256-10.336 22.592-10.336 6.992 0 14.032 2.448 19.696 7.456 12.464 10.96 13.76 30.016 2.896 42.576C850.194 641.016 678.034 719 495.762 719 313.522 719 141.346 641.048 23.41 505.112z"  horiz-adv-x="1024" />

    
    <glyph glyph-name="player-exit-full" unicode="&#54309;" d="M558.552 370.96l-35.156 0 0-298.828 70.313 0 0 178.805 178.805-178.805 49.711 49.729-178.805 178.788 178.805 0 0 70.313-263.672 0zM424.109 698.758l0-178.805-178.804 178.805-49.711-49.729 178.787-178.787-178.787 0 0-70.313 298.828 0 0 298.827-70.313 0z"  horiz-adv-x="1024" />

    
    <glyph glyph-name="player-pause" unicode="&#54310;" d="M251.733 65.422l182.045 0 0 637.155-182.045 0 0-637.155zM615.822 702.578l0-637.155 182.045 0 0 637.155-182.045 0z"  horiz-adv-x="1024" />

    
    <glyph glyph-name="player-play" unicode="&#54308;" d="M329.955 702.578l0-637.155 500.623 318.577-500.623 318.578z"  horiz-adv-x="1024" />

    
    <glyph glyph-name="player-replay" unicode="&#54312;" d="M506 639.667 506 810.333 292.667 597 506 383.667 506 554.333c141.227 0 256-114.773 256-256s-114.773-256-256-256-256 114.773-256 256l-85.333 0C164.667 109.747 317.413-43 506-43s341.333 152.747 341.333 341.333S694.587 639.667 506 639.667z"  horiz-adv-x="1024" />

    
    <glyph glyph-name="player-volume-off" unicode="&#54320;" d="M680.75 384c0 66.375-38.25 123.375-93.75 151.125l0-82.875 91.876-91.876c1.125 7.5 1.875 15.375 1.875 23.625zM774.5 384c0-35.25-7.5-68.25-20.25-99l56.625-56.625c24.749 46.5 38.624 99.375 38.624 155.625 0 160.5-112.125 294.75-262.5 328.875l0-77.25c108.375-32.251 187.501-132.751 187.501-251.626zM222.125 721.5l-47.625-47.625 177.375-177.375-177.375 0 0-225 150 0 187.5-187.5 0 252.374 159.375-159.375c-25.125-19.5-53.25-34.875-84.375-44.25l0-77.25c51.75 11.625 98.625 35.625 138.375 67.875l76.5-76.875 47.625 47.625-627.375 627.375zM512 684l-78.375-78.375 78.375-78.375 0 156.749z"  horiz-adv-x="1024" />

    
    <glyph glyph-name="player-volume-up" unicode="&#54321;" d="M174.5 496.5l0-225 150 0 187.5-187.5 0 599.999-187.5-187.5-150 0zM680.75 384c0 66.375-38.25 123.375-93.75 151.125l0-301.875c55.5 27.375 93.75 84.375 93.75 150.75zM587 712.875l0-77.25c108.375-32.251 187.501-132.751 187.501-251.626s-79.125-219.375-187.501-251.625l0-77.25c150.376 34.124 262.5 168.375 262.5 328.874s-112.125 294.75-262.5 328.875z"  horiz-adv-x="1024" />

    
    <glyph glyph-name="player-full-screen" unicode="&#54322;" d="M256.843 673.764l-35.156 0 0-298.828 70.313 0 0 178.805 178.805-178.805 49.711 49.729-178.805 178.787 178.805 0 0 70.312-263.673 0.001zM731.452 392.511l0-178.805-178.804 178.805-49.711-49.729 178.787-178.787-178.787 0 0-70.313 298.828 0 0 298.827-70.313 0z"  horiz-adv-x="1024" />

    
    <glyph glyph-name="arrow" unicode="&#54536;" d="M512-105.241c270.93 0 490.562 219.632 490.562 490.562s-219.632 490.562-490.562 490.562c-270.93 0-490.562-219.632-490.562-490.562 0-270.93 219.632-490.562 490.562-490.562zM409.458 548.842l49.056 49.056 212.577-212.577-212.577-212.577-49.056 49.056 163.52 163.52-163.52 163.52z"  horiz-adv-x="1024" />

    
    <glyph glyph-name="player-volume-down" unicode="&#54313;" d="M174.5 496.5l0-225 150 0 187.5-187.5 0 599.999-187.5-187.5-150 0zM680.75 384c0 66.375-38.25 123.375-93.75 151.125l0-301.875c55.5 27.375 93.75 84.375 93.75 150.75z"  horiz-adv-x="1024" />

    
    <glyph glyph-name="map-list-switch" unicode="&#54323;" d="M966.4 883.2c-12.8 6.4-25.6 12.8-38.4 6.4l-268.8-76.8L384 889.6c0 0 0 0 0 0-6.4 0-6.4 0-12.8 0-6.4 0-6.4 0-6.4 0 0 0 0 0 0 0L76.8 812.8C57.6 806.4 44.8 787.2 44.8 768l0-838.4c0-12.8 6.4-25.6 19.2-38.4 6.4-6.4 19.2-6.4 25.6-6.4 6.4 0 6.4 0 12.8 0l268.8 76.8 268.8-76.8c6.4 0 6.4 0 12.8 0 6.4 0 6.4 0 12.8 0l281.6 76.8c19.2 6.4 32 25.6 32 44.8L979.2 844.8C979.2 857.6 972.8 870.4 966.4 883.2L966.4 883.2zM134.4 729.6l192 51.2 0-742.4-192-51.2L134.4 729.6 134.4 729.6zM416 780.8l192-51.2 0-742.4-192 51.2L416 780.8 416 780.8zM889.6 38.4l-192-51.2L697.6 729.6l192 51.2L889.6 38.4 889.6 38.4z"  horiz-adv-x="1024" />

    
    <glyph glyph-name="window-maxmize" unicode="&#54325;" d="M222.236 128.843l0-35.156 298.828 0 0 70.313-178.805 0 178.805 178.805-49.729 49.711-178.787-178.805 0 178.805-70.312 0-0.001-263.673zM503.489 603.452l178.805 0-178.805-178.804 49.729-49.711 178.787 178.787 0-178.788 70.313 0 0 298.828-298.828 0 0-70.313z"  horiz-adv-x="1024" />

    
    <glyph glyph-name="window-minimize" unicode="&#54324;" d="M525.04 430.552l0-35.156 298.828 0 0 70.313-178.805 0 178.805 178.805-49.729 49.711-178.788-178.805 0 178.805-70.313 0 0-263.672zM197.242 296.109l178.805 0-178.805-178.804 49.729-49.711 178.787 178.787 0-178.788 70.313 0 0 298.828-298.828 0 0-70.313z"  horiz-adv-x="1024" />

    
    <glyph glyph-name="check-blod" unicode="&#54326;" d="M896 896 128 896C57.6 896 0 838.4 0 768l0-768c0-70.4 57.6-128 128-128l768 0c70.4 0 128 57.6 128 128L1024 768C1024 838.4 966.4 896 896 896zM844.8 499.2l-345.6-345.6c-12.8-12.8-25.6-19.2-44.8-19.2-19.2 0-32 6.4-44.8 19.2L243.2 326.4C230.4 339.2 224 358.4 224 371.2c0 19.2 6.4 32 19.2 44.8 25.6 25.6 64 25.6 89.6 0l128-128 300.8 300.8c25.6 25.6 64 25.6 89.6 0 12.8-12.8 19.2-25.6 19.2-44.8C864 531.2 857.6 512 844.8 499.2z"  horiz-adv-x="1024" />

    
    <glyph glyph-name="feed-back" unicode="&#54327;" d="M876.8 704c25.6 32-12.8 76.8-12.8 76.8s-25.6 32-70.4 64c-44.8 32-76.8 0-76.8 0L640 774.4l153.6-153.6C793.6 620.8 857.6 684.8 876.8 704zM755.2 588.8 614.4 742.4 192 320 339.2 160ZM160 281.6 76.8 38.4 307.2 140.8ZM0-32l1024 0 0-64-1024 0 0 64Z"  horiz-adv-x="1024" />

    
    <glyph glyph-name="spot" unicode="&#54328;" d="M89.6 505.6c-38.4 0-76.8-32-76.8-70.4l0-441.6c0-38.4 32-70.4 76.8-70.4 38.4 0 76.8 32 76.8 70.4L166.4 428.8C160 473.6 128 505.6 89.6 505.6zM876.8 544c-32 0-128-12.8-179.2-19.2C697.6 550.4 704 576 723.2 627.2c12.8 51.2 38.4 108.8 32 166.4C736 902.4 614.4 928 576 825.6c0-6.4-51.2-128-51.2-128C486.4 640 480 620.8 384 556.8 300.8 492.8 281.6 480 268.8 467.2 256 454.4 243.2 441.6 243.2 428.8l0-428.8c0-12.8 6.4-25.6 19.2-38.4 64-44.8 294.4-83.2 409.6-83.2 57.6 0 96 0 140.8 25.6 25.6 12.8 25.6 32 38.4 44.8 57.6 51.2 38.4 121.6 57.6 140.8 64 64 51.2 147.2 64 166.4 25.6 64 19.2 57.6 25.6 102.4C1036.8 492.8 972.8 537.6 876.8 544z"  horiz-adv-x="1024" />

    
    <glyph glyph-name="price-rise" unicode="&#54336;" d="M1004.8 409.6 582.4 825.6 518.4 883.2 460.8 825.6 19.2 396.8 140.8 268.8 428.8 550.4 428.8-32 428.8-115.2 595.2-115.2 595.2-32 595.2 550.4 883.2 288Z"  horiz-adv-x="1024" />

    
    <glyph glyph-name="price-drop" unicode="&#54329;" d="M1004.8 358.4 582.4-57.6 518.4-115.2 460.8-57.6 19.2 371.2 140.8 499.2 428.8 217.6 428.8 800 428.8 883.2 595.2 883.2 595.2 800 595.2 217.6 883.2 480Z"  horiz-adv-x="1024" />

    
    </font>
</defs>
</svg>
